<?xml version="1.0" encoding="utf-8" ?>
<svg xmlns="http://www.w3.org/2000/svg" xmlns:xlink="http://www.w3.org/1999/xlink" width="221" height="221">
	<path fill="#FAF0CA" transform="scale(0.21582 0.21582)" d="M0 0L1024 0L1024 1024L0 1024L0 0Z"/>
	<path fill="#0D3B66" transform="scale(0.21582 0.21582)" d="M151.727 457.503C146.668 453.387 142.946 444.703 141.582 438.424C140.821 434.921 140.653 431.18 139.716 427.735C138.904 424.747 136.687 422.237 135.817 419.271C134.962 416.358 135.243 413.159 134.201 410.294C131.938 404.067 128.375 398.299 126.244 391.952C124.7 387.353 124.317 382.059 121.689 377.931C117.169 370.832 119.137 365.109 116.714 357.756C115.837 355.096 113.583 353.032 112.389 350.512C110.575 346.686 110.676 341.975 109.103 338.026C107.76 334.652 105.148 331.947 103.921 328.482C102.478 324.41 101.698 320.01 100.553 315.839C99.0347 310.307 97.1474 304.843 95.4126 299.373C92.8534 291.302 89.3718 283.55 86.5086 275.593C83.4215 267.014 81.0399 258.176 78.0253 249.572C76.2152 244.405 74.1652 239.002 71.937 234.003C68.6056 226.528 62.2065 218.68 63.8219 209.917C64.0886 208.47 65.0048 207.428 66.1875 206.629C72.3998 202.432 120.336 203.872 131.846 203.067C133.236 202.97 134.138 201.813 135.374 201.711C137.215 201.558 139.765 203.286 141.747 203.505C146.024 203.976 150.458 202.72 154.754 203.111C161.058 203.685 166.796 206.127 173.268 205.971C177.53 205.868 181.32 203.219 185.542 202.864C189.722 202.512 194.028 203.277 198.232 203.204C208.543 203.026 219.918 200.888 230.063 202.834C233.807 203.553 258.41 222.04 262.692 225.71C267.632 229.945 272.034 234.826 277.05 238.949C283.067 243.894 290.911 248.107 295.469 254.509L295.662 259C295.911 265.392 299.675 271.818 301.931 277.756C305.681 287.63 309.785 297.691 312.908 307.76C314.533 313.001 316.01 318.332 317.935 323.473C320.097 329.247 322.631 334.881 324.662 340.705C329.094 353.417 332.92 366.371 337.369 379.095C339.099 384.041 341.389 388.767 343.065 393.73C346.982 405.323 351.178 416.875 354.924 428.518C357.209 435.618 358.619 442.933 361.871 449.688C363.329 440.64 368.124 432.932 370.719 424.266C373.382 415.378 374.967 406.227 378.029 397.417C380.784 389.489 384.82 381.975 387.369 373.977C390.878 362.967 393.317 351.595 397.162 340.68C401.024 329.717 405.87 319.17 409.892 308.29C412.059 302.428 413.347 296.262 415.587 290.42C417.918 284.339 420.718 278.402 422.869 272.257C424.586 267.351 425.231 262.117 426.91 257.198C428.934 251.265 431.976 245.662 433.788 239.658C436.483 230.726 439.334 214.661 444.349 207.296C448.062 205.158 468.675 204.777 473.365 205.913C475.469 207.074 476.879 208.032 479.323 207.333C479.711 207.222 480.09 207.085 480.474 206.964L483.554 206.004C494.185 206.261 510.17 204.9 520.053 207.682L526.076 205.652L526.795 205.856C534.185 207.916 545.525 206.213 553.381 205.794C556.334 205.636 560.647 204.96 563.373 206.289C571.027 210.02 576.553 221.124 581.975 227.625C585.126 231.403 588.865 234.76 591.736 238.753C595.184 243.55 598.11 248.94 601.215 253.975C604.086 248.02 606.36 241.819 609.134 235.825C611.571 230.559 614.647 225.489 616.581 220.016C617.09 218.851 617.637 217.207 618.55 216.301C620.262 214.601 622.071 214.855 624.326 214.88C648.557 215.403 672.67 214.238 696.882 214.138L731.997 214.098C736.929 214.136 741.884 214.935 746.812 214.823C750.969 214.728 755.058 213.664 759.217 213.626C766.485 213.559 773.768 214.246 781.034 214.2C803.19 214.059 825.332 213.517 847.499 214.055C854.724 214.23 861.916 215.151 869.159 215.256C875.096 215.342 900.889 212.417 904.447 216.148C906.591 218.395 907.064 222.335 908.81 224.985C912.747 229.216 926.607 253.345 929.316 259.434C933.54 265.112 935.644 271.515 940.617 276.823C937.837 289.102 925.84 310.504 920.026 322.853C917.082 329.105 914.693 335.677 911.877 342.001C907.473 351.893 902.697 361.574 898.1 371.369L813.792 553.737C809.648 562.49 804.665 570.725 800.348 579.373C794.089 591.911 788.749 604.84 782.788 617.515C773.149 638.012 763.042 658.318 755.451 679.715C760.47 679.052 766.032 679.427 771.108 679.337C781.694 679.147 792.377 678.723 802.96 679.02C808.144 679.165 813.305 679.954 818.485 680.056C827.314 680.23 836.357 679.336 845.194 678.977C847.526 678.736 850.459 678.251 852.741 678.849C856.649 679.872 875.604 702.839 879.914 707.429C888.487 716.56 899.413 725.119 905.943 735.794C905.355 741.533 901.638 747.694 899.55 753.059L884.423 791.559C881.916 798.011 880.497 805.008 877.032 811.036C866.787 813.188 855.799 813.434 845.369 813.667C826.95 814.077 808.525 813.434 790.112 813.628L590.328 814.075C582.581 814.083 574.905 813.295 567.174 813.086C559.237 812.872 551.256 813.315 543.317 813.441C536.805 808.223 532.852 800.054 527.219 793.895C520.834 786.916 513.489 781.495 506.779 774.981C503.795 772.084 501.29 768.663 498.498 765.578C495.463 762.224 492.06 759.151 488.78 756.038C491.269 749.306 494.867 742.821 498.111 736.42L512.316 708.43L560.955 613.205C564.114 607.11 566.722 600.748 569.915 594.667C578.788 577.767 588.324 561.079 596.872 544.029C598.787 540.21 599.911 536.05 601.896 532.263C614.679 507.873 628.028 483.675 640.384 459.073C644.217 451.441 646.629 443.143 650.481 435.525C652.398 431.733 655.322 428.573 657.347 424.851C664.877 411.009 671.717 396.726 679.158 382.819C685.048 371.809 691.59 361.124 697.361 350.06C690.499 349.856 683.621 350.923 676.752 350.876C666.328 350.805 656.001 349.839 645.528 350.062C637.789 350.226 630.037 351.293 622.295 350.938C621.526 348.611 620.832 346.008 619.303 344.058C619.135 343.843 618.955 343.637 618.783 343.424C615.25 339.046 610.849 335.403 606.745 331.573Q599.571 324.988 592.969 317.829C592.211 319.655 591.498 321.47 589.496 322.25C588.126 322.783 586.204 322.605 584.783 322.35C582.388 329.987 579.015 337.081 576.067 344.493C573.795 350.205 572.126 356.155 569.88 361.885C567.648 367.576 564.762 372.95 562.412 378.579C560.005 384.347 558.699 390.663 555.406 396.006C551.724 401.981 550.445 408.861 547.911 415.341C543.212 427.351 538.215 439.314 533.348 451.264L491.658 552.747C489.448 558.081 486.601 563.139 484.447 568.494C481.063 576.908 477.419 585.633 474.472 594.189C471.943 601.534 469.846 609.06 467.066 616.314L426.83 720.032C425.164 724.375 423.04 728.528 421.37 732.873C415.362 748.505 409.91 764.201 404.416 780.007C402.314 786.054 398.756 792.698 398.153 799.029C397.941 801.253 397.914 804.57 396.201 806.178C391.176 810.895 368.981 809.278 361.658 809.443C357.661 809.533 353.662 810.461 349.628 810.556C340.861 810.762 332.058 810.164 323.292 810.194C319.869 810.206 315.77 811.252 312.444 810.81C309.171 810.376 288.251 793.473 284.79 790.29C280.69 786.52 277.069 782.275 272.888 778.575C267.934 774.19 259.106 768.496 255.768 763.056C255.143 762.037 254.788 760.623 255.232 759.471C255.93 757.664 257.923 756.279 257.936 754.273C257.291 753.271 256.304 752.777 255.316 752.164C252.996 745.433 250.788 738.526 248.208 731.899C246.686 727.987 244.645 724.284 243.12 720.374C241.825 717.055 240.976 713.572 239.796 710.211C238.546 706.654 236.865 703.249 235.564 699.705C233.462 693.979 231.73 688.118 229.669 682.377C228.321 678.622 226.465 675.079 225.125 671.332C222.614 664.313 220.745 657.058 218.557 649.941C217.446 646.328 215.809 642.86 214.515 639.308C213.06 635.316 211.962 631.216 210.53 627.222C209.374 623.999 207.953 620.871 206.839 617.632C205.704 614.334 204.96 610.891 203.755 607.621C202.474 604.143 200.649 600.87 199.292 597.418C197.634 593.2 194.502 583.494 193.448 579.235C193.097 577.818 193.285 576.404 193.523 574.987C190.477 569.558 189.367 565.103 189.022 558.885C185.443 554.837 184.73 549.945 183.649 544.84C178.762 539.969 180.884 537.557 178.641 531.828C177.455 528.799 175.035 525.896 173.326 523.103C173.472 520.902 174.099 517.843 172.564 516.032C171.64 514.942 170.527 513.934 169.541 512.89C168.578 511.351 167.844 509.644 167.058 508.007C167.31 506.003 167.538 504.322 168.38 502.474C167.133 501.123 165.615 499.648 164.788 497.994C163.42 495.26 162.678 492.086 161.572 489.226C157.41 478.469 153.55 469.044 151.727 457.503Z"/>
	<path fill="#5C1000" transform="scale(0.21582 0.21582)" d="M684.312 312.921L686.186 314.964L683.413 316.761L680.183 313.579C681.439 313.059 682.961 313.065 684.312 312.921Z"/>
	<path fill="#FDFDFD" transform="scale(0.21582 0.21582)" d="M815.017 504.831C817.591 503.887 819.502 503.946 822.154 504.525C821.113 506.903 819.754 509.194 818.535 511.487C817.152 509.338 816.083 507.143 815.017 504.831Z"/>
	<path fill="#4A3D27" transform="scale(0.21582 0.21582)" d="M329.35 543.11C331.144 543.769 333.191 544.306 334.213 546.024C334.586 547.931 333.789 549.568 333.156 551.337C332.26 551.389 331.507 551.439 330.653 551.075C329.407 550.544 328.756 549.563 328.383 548.302C327.876 546.591 328.513 544.593 329.35 543.11Z"/>
	<path fill="#5C1000" transform="scale(0.21582 0.21582)" d="M657.145 310.986C660.302 311.481 663.789 310.951 666.789 311.733C665.219 311.791 663.428 311.579 662.084 312.392L662.121 313.172C664.216 314.912 666.04 316.793 667.9 318.776C667.04 319.054 666.353 319.297 665.606 319.811L665.663 320.823L665.369 321.258C662.932 318.834 660.702 316.245 658.453 313.648C657.529 312.733 657.497 312.26 657.145 310.986Z"/>
	<path fill="#FDFDFD" transform="scale(0.21582 0.21582)" d="M584.783 322.35C586.092 317.958 586.154 315.114 585.08 310.654C587.978 312.825 590.447 315.238 592.969 317.829C592.211 319.655 591.498 321.47 589.496 322.25C588.126 322.783 586.204 322.605 584.783 322.35Z"/>
	<path fill="#4A2F1C" transform="scale(0.21582 0.21582)" d="M242.564 226.669C250.662 234.297 259.831 241.183 266.62 250.088L264.105 251.187C256.637 243.881 248.464 236.975 241.256 229.472C245.533 230.978 249.757 235.907 253.104 239.007L253.356 238.635C250.888 235.19 243.978 231.176 242.796 227.519C242.705 227.24 242.641 226.952 242.564 226.669Z"/>
	<path fill="#4A3D27" transform="scale(0.21582 0.21582)" d="M168.38 502.474C168.534 502.445 168.69 502.42 168.843 502.385C171.171 501.856 172.667 501.296 175.186 501.261C177.024 502.827 177.637 507.121 178.58 509.47C175.083 510.146 172.415 510.631 169.541 512.89C168.578 511.351 167.844 509.644 167.058 508.007C167.31 506.003 167.538 504.322 168.38 502.474Z"/>
	<path fill="#FEECE5" transform="scale(0.21582 0.21582)" d="M701.727 313.055C707.47 313.054 713.415 312.937 719.055 314.137C716.975 318.365 714.706 322.371 711.747 326.054L710.572 325.379C708.824 322.501 706.628 319.9 704.555 317.254L701.727 313.055Z"/>
	<path fill="#FAF0CA" transform="scale(0.21582 0.21582)" d="M713.508 797.661C713.699 797.446 713.884 797.225 714.081 797.014C718.209 792.593 729.804 794.915 735.465 794.792L736.024 794.775C737.513 796.759 739.357 798.757 740.031 801.174C739.528 801.459 739.172 801.663 738.607 801.805C731.568 800.821 724.024 801.569 716.868 801.083C715.695 800.011 714.612 798.805 713.508 797.661Z"/>
	<path fill="#4A3D27" transform="scale(0.21582 0.21582)" d="M755.451 679.715C760.47 679.052 766.032 679.427 771.108 679.337C781.694 679.147 792.377 678.723 802.96 679.02C808.144 679.165 813.305 679.954 818.485 680.056C827.314 680.23 836.357 679.336 845.194 678.977C845.128 681.327 844.212 682.203 842.659 683.825C830.551 685.563 818.417 684.823 806.247 684.668C795.457 684.531 784.7 684.565 773.909 684.159C784.89 683.662 796.009 683.876 807 684.048C810.993 684.111 815.522 684.818 819.447 684.39C814.66 679.733 808.672 679.758 802.376 679.863C786.829 680.125 771.213 679.591 755.689 680.088L756.025 680.13L755.855 679.722L755.451 679.715Z"/>
	<path fill="#FDFDFD" transform="scale(0.21582 0.21582)" d="M685.488 680.832C688.098 673.781 692.068 665.855 696.153 659.58L696.725 659.699L698.053 663.173C699.766 669.156 701.658 676.527 705.361 681.599C698.798 681.666 691.962 681.957 685.488 680.832Z"/>
	<path fill="#FCD6C8" transform="scale(0.21582 0.21582)" d="M684.312 312.921C688.509 312.941 692.712 313.203 696.904 312.926L701.689 318.69C703.819 321.619 705.358 324.522 708.969 325.663L710.572 325.379L711.747 326.054C709.344 328.857 707.339 332.02 705.262 335.07C701.546 331.401 697.996 327.596 694.447 323.768L686.186 314.964L684.312 312.921Z"/>
	<path fill="#FFAEB4" transform="scale(0.21582 0.21582)" d="M354.805 739.482C356.659 744.361 359.015 749.047 361.253 753.759C364.678 761.181 368.567 768.565 371.688 776.106C367.045 771.723 362.243 765.78 356.705 762.598C354.924 760.419 350.897 758.6 348.467 757.128C350.745 751.331 352.648 745.335 354.805 739.482Z"/>
	<path fill="#FCD6C8" transform="scale(0.21582 0.21582)" d="M606.769 311.255Q607.547 311.32 608.323 311.412C616.265 312.4 632.507 330.187 637.519 336.525Q634.931 336.445 632.347 336.294C631.059 336.234 629.755 336.181 628.477 336.009C621.843 335.111 604.134 317.499 599.869 311.968C602.289 311.996 604.444 312.072 606.769 311.255Z"/>
	<path fill="#FCD6C8" transform="scale(0.21582 0.21582)" d="M239.084 218.56C250.421 224.031 260.416 236.146 269.507 244.613C274.215 248.997 282.78 254.076 284.842 260.23C286.045 263.821 286.526 268.019 286.793 271.789C284.932 270.212 283.092 268.664 281.419 266.881C276.421 261.345 271.6 255.644 266.62 250.088C259.831 241.183 250.662 234.297 242.564 226.669C240.646 224.004 239.705 221.766 239.084 218.56Z"/>
	<path fill="#FCD6C8" transform="scale(0.21582 0.21582)" d="M639.664 310.981C645.412 311.193 651.416 311.56 657.145 310.986C657.497 312.26 657.529 312.733 658.453 313.648C660.702 316.245 662.932 318.834 665.369 321.258C665.451 321.366 665.532 321.475 665.615 321.581C667.423 323.89 679 334.508 679.25 335.887Q676.844 336.145 674.443 336.443C670.804 336.222 667.213 336.341 663.572 336.473C659.027 328.582 646.387 317.713 639.664 310.981Z"/>
	<path fill="#FCD6C8" transform="scale(0.21582 0.21582)" d="M666.789 311.733C671.273 312.031 676.107 311.439 680.183 313.579L683.413 316.761C686.078 319.755 688.677 322.876 691.493 325.727Q695.294 330.347 699.038 335.014C695.31 335.405 686.631 337.38 683.523 335.746C679.997 329.811 673.106 323.348 667.9 318.776C666.04 316.793 664.216 314.912 662.121 313.172L662.084 312.392C663.428 311.579 665.219 311.791 666.789 311.733Z"/>
	<path fill="#FCD6C8" transform="scale(0.21582 0.21582)" d="M616.75 309.755C621.66 311.371 627.727 310.443 632.911 311.091C642.326 318.193 650.405 326.77 658.255 335.527C653.641 335.722 649.053 335.874 644.433 335.836C640.173 333.508 619.76 313.798 616.75 309.755Z"/>
	<path fill="#FCD6C8" transform="scale(0.21582 0.21582)" d="M316.144 480.237C317.57 481.703 318.951 483.217 320.351 484.709L338.581 507.552L341.743 511.666C339.22 519.496 335.722 527.25 332.797 534.957L332.031 535.161C331.031 534.583 330.646 534.104 330.314 532.963C329.079 528.717 328.765 523.914 327.683 519.54Q322.857 499.612 316.144 480.237Z"/>
	<path fill="#FDFDFD" transform="scale(0.21582 0.21582)" d="M903.523 231.851Q910.035 242.538 915.788 253.652C917.921 257.679 919.971 262.956 922.749 266.506C924.434 269.66 926.261 272.719 928.097 275.787C925.937 279.508 924.423 284.234 921.767 287.508C921.054 286.826 921.291 287.166 920.953 286.567C920.817 286.031 920.688 285.493 920.524 284.965C917.287 274.531 911.034 265.416 905.818 255.939C904.148 252.905 902.204 246.055 899.122 244.443L898.41 245.582C897.719 245.436 897.073 245.169 896.409 244.93C898.97 240.784 901.971 236.501 903.523 231.851Z"/>
	<path fill="#FCD6C8" transform="scale(0.21582 0.21582)" d="M341.836 763.94C344.039 763.927 346.076 763.576 348.234 763.193C360.386 772.716 370.853 784.984 383.792 793.373C383.429 794.858 383.24 796.578 382.23 797.737C377.231 798.429 371.872 798.035 366.823 798.017C354.962 786.122 343.479 774.339 330.252 763.914C334.126 764.091 337.966 764.323 341.836 763.94Z"/>
	<path fill="#FCD6C8" transform="scale(0.21582 0.21582)" d="M839.183 738.338C852.688 753.331 862.536 771.439 875.911 786.636C874.952 789.414 874.212 795.391 871.92 797.176C867.179 791.107 861.401 785.972 856.568 779.986C852.246 774.634 848.887 768.245 844.074 763.34C841.16 760.37 837.353 758.339 834.212 755.583L833.745 755.167C835.024 749.162 836.551 743.89 839.183 738.338Z"/>
	<path fill="#FCD6C8" transform="scale(0.21582 0.21582)" d="M306.843 443.017C318.73 454.694 327.373 469.163 338.616 481.365L343.612 487.551C345.042 489.286 346.441 491.059 347.949 492.727C346.642 496.886 345.31 503.887 342.384 507.078C341.496 506.723 341.422 506.675 340.854 505.987C335.328 497.432 328.837 490.038 322.308 482.283C320.593 479.814 317.882 477.935 316.335 475.33C312.401 468.706 309.161 451.215 306.843 443.017Z"/>
	<path fill="#FAF0CA" transform="scale(0.21582 0.21582)" d="M697.034 656.916C699.3 650.881 704.054 643.178 708.287 638.341L709.1 638.925C712.394 648.277 716.689 658.137 721.297 666.906C723.616 671.844 725.916 676.756 728.653 681.481C721.144 681.861 713.293 680.885 705.892 681.776L705.361 681.599C701.658 676.527 699.766 669.156 698.053 663.173C699.14 662.651 698.938 662.642 699.405 661.623C698.671 660.031 697.831 658.478 697.034 656.916Z"/>
	<path fill="#5C1000" transform="scale(0.21582 0.21582)" d="M699.405 661.623C702.073 667.116 706.189 675.598 705.892 681.776L705.361 681.599C701.658 676.527 699.766 669.156 698.053 663.173C699.14 662.651 698.938 662.642 699.405 661.623Z"/>
	<path fill="#FCD6C8" transform="scale(0.21582 0.21582)" d="M739.45 759.032C743.576 758.917 748.958 758.038 752.84 759.496C755.736 760.583 776.067 786.698 780.172 791.23C783.313 794.697 786.366 797.78 790.166 800.524C783.241 800.564 776.322 801.057 769.387 801.096C768.957 800.66 768.528 800.23 768.108 799.784C763.853 795.268 760.537 789.535 756.728 784.613C753.142 779.978 741.5 766.994 739.678 763.048C739.187 761.984 739.417 760.192 739.45 759.032Z"/>
	<path fill="#FCD6C8" transform="scale(0.21582 0.21582)" d="M811.325 761.466C816.531 761.555 825.358 760.92 830.166 762.275C838.22 764.546 847.177 781.324 852.313 788.097Q854.711 791.308 857.42 794.262Q860.13 797.215 863.123 799.88C857.35 800.713 851.697 800.74 845.881 800.426C835.773 793.466 819.973 771.877 811.325 761.466Z"/>
	<path fill="#FCD6C8" transform="scale(0.21582 0.21582)" d="M301.661 763.897C309.591 765.324 318.12 764.854 326.069 763.793C339.712 773.388 351.602 787.885 365.011 798.219C364.676 798.269 364.342 798.335 364.005 798.37C360.957 798.686 357.621 798.497 354.553 798.525C343.889 798.619 340.993 797.382 332.993 790.305C323.211 780.917 312.6 771.899 301.661 763.897Z"/>
	<path fill="#FCD6C8" transform="scale(0.21582 0.21582)" d="M846.155 718.383L847.231 720.282C850.836 726.659 855.54 732.413 859.638 738.482Q871.185 755.339 880.941 773.293C879.783 776.77 878.535 782.448 876.241 785.161C865.688 767.987 852.411 752.357 840.866 735.846C842.376 729.891 844.169 724.195 846.155 718.383Z"/>
	<path fill="#FCD6C8" transform="scale(0.21582 0.21582)" d="M272.979 764.038C281.101 763.288 289.361 763.84 297.518 763.697C308.485 773.423 319.39 783.426 330.857 792.552Q333.687 795.537 336.388 798.64C328.37 798.444 320.283 798.796 312.294 797.998C309.004 795.65 306.013 792.66 302.956 790.008Q294.668 782.886 286.28 775.881C282.294 772.599 275.081 768.491 272.086 764.835L272.979 764.038Z"/>
	<path fill="#FCD6C8" transform="scale(0.21582 0.21582)" d="M629.298 758.052C636.321 757.927 643.183 758.084 650.146 759.176C662.222 769.35 669.013 784.822 681.16 795.203C682.353 796.602 683.517 798.003 684.625 799.47L684.181 800.15C679.029 802.252 671.13 801.514 665.655 801.014Q662.587 797.672 659.564 794.29L640.655 771.707C636.827 767.19 632.746 762.874 629.298 758.052Z"/>
	<path fill="#FCD6C8" transform="scale(0.21582 0.21582)" d="M783.852 761.401C785.073 760.952 804.968 761.087 808.843 760.986C814.954 770.482 834.043 792.957 842.365 800.682C833.236 799.821 823.153 802.656 815.947 795.793C806.056 783.618 794.617 772.792 783.852 761.401Z"/>
	<path fill="#FCD6C8" transform="scale(0.21582 0.21582)" d="M682.033 757.956C690.665 759.496 700.512 756.637 708.148 761.217C710.192 763.483 712.217 765.719 714.035 768.174C720.725 777.633 728.767 785.796 736.024 794.775L735.465 794.792C729.804 794.915 718.209 792.593 714.081 797.014C713.884 797.225 713.699 797.446 713.508 797.661C702.171 785.661 691.33 771.567 682.033 757.956Z"/>
	<path fill="#FCD6C8" transform="scale(0.21582 0.21582)" d="M625.95 758.669C636.988 770.481 646.198 783.708 657.204 795.535L661.314 800.711C654.654 801.912 647.612 801.273 640.876 801.098C631.794 793.372 625.638 782.235 617.008 773.811Q610.571 766.584 604.561 758.998C611.628 758.906 618.913 759.196 625.95 758.669Z"/>
	<path fill="#FCD6C8" transform="scale(0.21582 0.21582)" d="M653.519 755.886C661.943 756.553 669.258 760.035 677.954 759.077C682.258 762.97 685.026 768.928 688.397 773.664C695.111 783.097 702.479 792.705 710.631 800.939C703.86 802.519 695.702 801.599 688.777 801.276C683.914 792.868 676.747 785.621 670.59 778.14C664.661 770.936 659.15 763.327 653.519 755.886Z"/>
	<path fill="#FCD6C8" transform="scale(0.21582 0.21582)" d="M757.176 759.363C764.429 760.016 771.671 761.137 778.901 759.86C780.262 761.054 781.556 762.335 782.871 763.58C789.022 770.531 795.619 777.054 801.96 783.828C806.083 788.233 809.917 792.934 814.071 797.298L817.259 800.601C809.331 800.344 801.289 801.427 793.433 800.357C783.936 794.387 765.968 769.299 757.176 759.363Z"/>
	<path fill="#FCD6C8" transform="scale(0.21582 0.21582)" d="M298.95 406.873C304.041 414.422 310.27 421.36 315.907 428.518Q334.881 452.464 354.146 476.178C351.92 480.582 350.558 485.353 349.055 490.04L346.839 486.92C345.227 484.376 343.345 481.986 341.555 479.564Q330.409 464.395 318.076 450.173C313.263 444.688 307.589 439.773 303.36 433.828C302.629 424.497 298.922 416.326 298.95 406.873Z"/>
	<path fill="#FCD6C8" transform="scale(0.21582 0.21582)" d="M711.743 759.728C714.673 757.444 722.889 757.903 726.586 758.367C732.724 759.137 735.475 762.26 739.063 766.948C747.379 777.813 756.699 788.806 763.647 800.588C757.973 800.758 749.055 801.932 743.735 800.091C743.567 800.174 743.395 800.249 743.23 800.34C742.374 800.81 741.742 801.401 741.014 802.044C739.981 802.251 739.574 802.226 738.607 801.805C739.172 801.663 739.528 801.459 740.031 801.174C739.357 798.757 737.513 796.759 736.024 794.775C728.767 785.796 720.725 777.633 714.035 768.174L717.354 766.896C715.321 764.657 713.565 762.139 711.743 759.728Z"/>
	<defs>
		<linearGradient id="gradient_0" gradientUnits="userSpaceOnUse" x1="722.71991" y1="786.11731" x2="734.68701" y2="781.41925">
			<stop offset="0" stop-color="#301A17"/>
			<stop offset="1" stop-color="#57332F"/>
		</linearGradient>
	</defs>
	<path fill="url(#gradient_0)" transform="scale(0.21582 0.21582)" d="M717.354 766.896C725.639 775.772 739.037 789.232 743.735 800.091C743.567 800.174 743.395 800.249 743.23 800.34C742.374 800.81 741.742 801.401 741.014 802.044C739.981 802.251 739.574 802.226 738.607 801.805C739.172 801.663 739.528 801.459 740.031 801.174C739.357 798.757 737.513 796.759 736.024 794.775C728.767 785.796 720.725 777.633 714.035 768.174L717.354 766.896Z"/>
	<path fill="#FCD6C8" transform="scale(0.21582 0.21582)" d="M260.176 266.524C248.99 254.352 250.961 252.715 244.441 238.936C243.089 236.08 240.545 232.454 240.07 229.378L241.256 229.472C248.464 236.975 256.637 243.881 264.105 251.187C269.683 256.744 274.545 262.976 279.581 269.019C283.305 273.377 288.304 277.125 291.623 281.702C295.087 286.477 302.641 307.631 303.28 313.779L302.84 314.653C300.083 313.842 297.614 309.975 295.825 307.799C284.709 293.678 272.687 279.418 260.176 266.524Z"/>
	<path fill="#FAF0CA" transform="scale(0.21582 0.21582)" d="M827.772 383.058C830.831 390.054 833.037 397.275 836.38 404.194C840.91 414.271 845.089 424.85 850.176 434.639L852.697 438.735C850.725 442.193 848.786 445.674 847.45 449.439L842.405 459.814C836.424 448.555 831.078 437.06 825.758 425.478C823.068 419.476 820.596 412.261 816.332 407.193C821.246 401.413 824.741 390.273 827.772 383.058Z"/>
	<path fill="#FCD6C8" transform="scale(0.21582 0.21582)" d="M540.238 758.021C549.516 758.223 558.701 758.271 567.974 757.814C572.302 761.871 576.192 766.833 580.008 771.378Q592.199 785.811 603.538 800.923C598.583 800.931 593.649 801.192 588.698 801.333C585.814 801.415 582.487 801.626 579.793 800.453C576.139 798.861 571.938 792.592 569.167 789.593C564.839 784.909 560.183 780.523 555.945 775.754C550.683 769.832 546.028 763.466 540.238 758.021Z"/>
	<path fill="#FAF0CA" transform="scale(0.21582 0.21582)" d="M792.003 459.373C794.987 464.602 797.355 470.087 799.76 475.597L801.431 476.183L802.318 474.7C803.186 476.755 804.15 478.81 804.9 480.909C808.571 488.253 812.478 496.751 814.736 504.623C814.279 505.323 813.891 505.948 813.303 506.547C814.601 509.152 815.934 511.63 817.511 514.078Q815.714 517.733 813.964 521.411C810.863 526.447 808.72 532.091 806.48 537.546Q803.018 528.572 799.463 519.635C797.442 514.23 795.098 508.903 792.907 503.562C791.196 500.081 789.846 496.315 788.351 492.729C786.822 488.832 785.154 485.254 782.647 481.884C785.741 474.413 789.406 467.02 792.003 459.373Z"/>
	<path fill="#5C1000" transform="scale(0.21582 0.21582)" d="M802.318 474.7C803.186 476.755 804.15 478.81 804.9 480.909C808.571 488.253 812.478 496.751 814.736 504.623C814.279 505.323 813.891 505.948 813.303 506.547C809.21 498.559 805.848 490.007 802.193 481.797C801.244 479.799 800.537 477.669 799.76 475.597L801.431 476.183L802.318 474.7Z"/>
	<path fill="#FCD6C8" transform="scale(0.21582 0.21582)" d="M534.745 757.789L535.585 757.743C541.185 763.179 546.176 769.441 551.401 775.247Q563.181 788.561 575.927 800.953C567.385 801.103 558.004 802.221 549.582 801.04C548.692 801.007 547.836 801.012 547.14 800.37C543.883 797.363 541.552 792.792 538.468 789.494C528.557 778.894 517.897 769.014 507.782 758.617C516.736 758.624 525.852 758.972 534.745 757.789Z"/>
	<path fill="#FCD6C8" transform="scale(0.21582 0.21582)" d="M574.088 757.176C581.477 757.24 588.801 757.487 596.195 757.249C603.023 761.309 630.898 792.677 633.228 800.227L632.447 800.664L608.9 801.599C601.487 794.259 595.691 785.082 588.989 777.064C585.574 772.977 575.997 763.568 573.887 759.788C573.284 758.709 573.673 758.2 574.088 757.176Z"/>
	<path fill="#FCD6C8" transform="scale(0.21582 0.21582)" d="M271.287 319.423Q289.608 344.492 309.193 368.587C313.748 374.125 318.437 380.7 323.998 385.226C325.046 386.079 326.138 386.321 327.415 386.627C329.043 388.503 329.718 393.191 330.659 395.685L338.938 417.609C340.122 420.671 341.589 423.714 342.583 426.837C342.879 427.77 343.064 428.607 343.008 429.595C342.996 429.8 342.947 430.001 342.917 430.205C341.376 429.925 340.636 427.8 339.397 426.919L335.401 421.369C320.768 401.519 304.233 383.04 289.706 363.118C286.197 358.305 281.89 353.334 279.158 348.064C275.481 340.971 272.041 328.841 271.403 320.895L271.324 319.976C271.309 319.792 271.299 319.608 271.287 319.423Z"/>
	<path fill="#FAF0CA" transform="scale(0.21582 0.21582)" d="M839.216 356.92C844.787 366.548 848.919 376.314 853.587 386.367C857.386 394.549 861.448 402.605 865.16 410.828C865.139 411.784 865.214 412.752 864.907 413.663C862.677 417.952 856.638 432.453 853.591 434.659C852.705 434.079 853.081 434.366 852.44 433.829C847.4 423.807 843.365 413.209 838.464 403.087C835.185 396.093 833.546 387.887 828.282 382.097C831.777 377 836.293 364.067 838.736 357.898L839.216 356.92Z"/>
	<path fill="#5C1000" transform="scale(0.21582 0.21582)" d="M839.216 356.92C844.787 366.548 848.919 376.314 853.587 386.367C857.386 394.549 861.448 402.605 865.16 410.828C865.139 411.784 865.214 412.752 864.907 413.663C859.173 408.041 842.344 367.536 838.736 357.898L839.216 356.92Z"/>
	<path fill="#FCD6C8" transform="scale(0.21582 0.21582)" d="M282.356 359.656C286.654 364.626 290.167 370.467 294.142 375.727Q306.953 392.628 320.41 409.02C324.246 413.719 328.008 419.01 332.457 423.126C334.118 425.044 335.853 427.443 337.743 429.119C339.345 431.309 343.296 437.757 345.751 438.69C346.365 438.924 347.011 438.239 347.522 437.922C348.507 439.464 348.017 442.496 348.674 444.386C351.079 451.312 355.314 457.911 356.599 465.2C356.978 467.35 355.492 468.75 354.298 470.399C349.625 463.004 343.376 456.08 337.93 449.223C328.085 436.828 318.27 424.324 308.076 412.215C303.937 407.298 297.716 402.559 294.658 396.954C292.994 393.904 292.229 390.353 291.088 387.087C289.776 383.333 288.157 379.665 286.928 375.89C285.194 370.564 284.035 365.021 282.356 359.656Z"/>
	<path fill="#FAF0CA" transform="scale(0.21582 0.21582)" d="M390.653 638.466C396.31 647.65 400.016 658.63 404.153 668.595C408.607 678.823 413.141 689.397 416.736 699.955L419.584 702.319C417.902 706.018 416.214 709.718 414.75 713.509C413.392 717.027 412.301 721.433 410.339 724.603C405.1 721.352 400.298 705.973 397.405 699.951L395.019 700.934C392.708 694.146 389.753 687.619 387.054 680.981C387.531 680.136 388.166 679.425 388.777 678.673C386.839 673.846 385.011 668.275 381.834 664.136C381.309 661.104 389.131 642.812 390.653 638.466Z"/>
	<path fill="#5C1000" transform="scale(0.21582 0.21582)" d="M388.777 678.673L397.405 699.951L395.019 700.934C392.708 694.146 389.753 687.619 387.054 680.981C387.531 680.136 388.166 679.425 388.777 678.673Z"/>
	<path fill="#FAF0CA" transform="scale(0.21582 0.21582)" d="M744.985 556.888C750.136 562.17 759.936 582.502 762.838 589.949L760.525 591.536C762.17 595.839 763.843 600.159 765.248 604.546C766.541 608.582 767.496 612.816 769.253 616.678C767.157 621.124 764.899 625.515 762.847 629.975C761.527 632.844 760.613 637.141 758.728 639.553C758.004 638.995 757.416 638.496 756.845 637.781C756.707 636.453 742.128 601.49 740.2 597.208C738.816 594.135 737.319 591.157 735.454 588.345L732.845 583.532C735.52 578.772 738.22 573.997 740.284 568.932C741.817 565.173 742.74 560.908 744.697 557.373L744.985 556.888Z"/>
	<path fill="#5C1000" transform="scale(0.21582 0.21582)" d="M744.985 556.888C750.136 562.17 759.936 582.502 762.838 589.949L760.525 591.536C757.422 583.144 745.464 563.067 744.697 557.373L744.985 556.888Z"/>
	<path fill="#FCD6C8" transform="scale(0.21582 0.21582)" d="M854.524 691.858C864.23 701.396 873.438 711.32 882.575 721.4C886.55 725.785 891.399 730.349 894.385 735.426C892.029 742.242 889.559 749.022 886.499 755.56C885.033 760.868 882.769 765.827 881.285 771.106C874.874 752.467 856.91 733.568 847.13 715.835Q848.665 709.728 850.33 703.656C854.936 711.854 861.203 719.272 866.572 727.006C871.559 734.189 876.101 742.187 881.546 748.98C882.889 750.654 884.387 751.952 886.069 753.264C886.112 752.884 886.269 752.499 886.2 752.123C885.549 748.603 855.404 708.428 850.983 702.017Q852.796 696.952 854.524 691.858Z"/>
	<path fill="#FCD6C8" transform="scale(0.21582 0.21582)" d="M251.641 261.942C253.963 263.835 256.043 265.982 258.166 268.092C265.408 276.204 272.359 284.44 279.192 292.894C283.821 298.619 288.279 304.632 293.214 310.085C296.994 315.975 302.642 320.839 306.514 326.76C312.685 336.197 315.422 347.685 318.945 358.265C321.651 366.389 324.684 374.045 326.22 382.524C313.881 370.135 302.172 353.001 291.474 339.021C283.75 328.928 274.204 318.641 268.332 307.399C264.511 300.084 260.575 291.646 257.837 283.887C255.346 276.83 253.942 269.14 251.641 261.942Z"/>
	<path fill="#FAF0CA" transform="scale(0.21582 0.21582)" d="M896.409 244.93C897.073 245.169 897.719 245.436 898.41 245.582C904.354 259.763 913.159 272.559 918.603 287.036L920.344 291.959C915.968 302.184 910.267 311.773 905.755 321.913C903.768 326.379 902.788 331.886 900.238 336.001C899.229 335.343 899.103 334.884 898.575 333.833L896.838 336.361C889.014 322.389 883.675 307.058 875.729 293.256C875.895 292.387 875.892 292.772 875.751 291.812C875.609 290.838 875.757 290.867 876.2 290.03C875.959 289.692 875.557 289.149 875.382 288.791C873.053 284.023 882.616 273.095 883.848 268.077C884.695 267.322 884.213 267.57 885.282 267.312C888.733 272.203 891.496 277.565 893.961 283.011C897.918 291.749 902.459 307.661 909.866 313.575C905.227 300.227 894.331 275.688 885.802 265.065C886.915 262.568 888.151 260.131 889.371 257.686C891.649 255.395 894.73 248.052 896.409 244.93Z"/>
	<path fill="#5C1000" transform="scale(0.21582 0.21582)" d="M875.729 293.256C875.895 292.387 875.892 292.772 875.751 291.812C875.609 290.838 875.757 290.867 876.2 290.03C878.899 292.933 896.376 328.289 898.575 333.833L896.838 336.361C889.014 322.389 883.675 307.058 875.729 293.256Z"/>
	<path fill="#FAF0CA" transform="scale(0.21582 0.21582)" d="M815.288 408.939C818.275 414.858 821.011 420.882 823.756 426.915C829.098 438.893 834.067 451.466 841.782 462.147C839.787 466.715 836.916 471.856 835.688 476.631C833.378 480.549 831.943 484.877 829.729 488.831C828.815 486.156 828.03 483.194 826.816 480.655L826.2 481.241C825.864 480.566 825.44 479.206 824.777 478.899C824.17 479.494 824.102 480.205 823.864 481.004C825.068 484.781 826.348 488.387 828.016 491.986Q825.199 498.309 822.154 504.525C819.502 503.946 817.591 503.887 815.017 504.831L814.736 504.623C812.478 496.751 808.571 488.253 804.9 480.909C804.15 478.81 803.186 476.755 802.318 474.7C800.134 468.324 796.686 462.378 792.987 456.778C797.59 448.651 800.697 439.456 804.568 430.958C807.957 423.521 812.102 416.484 815.288 408.939Z"/>
	<path fill="#5C1000" transform="scale(0.21582 0.21582)" d="M822.204 476.377C820.503 471.17 818.068 466.044 816.078 460.924C813.805 455.078 811.899 449.102 809.768 443.205C808.829 440.607 807.143 437.6 806.808 434.905C806.68 433.883 806.599 434.335 807.303 433.439C812.009 439.565 814.766 451.306 817.703 458.775C819.799 464.106 822.377 469.252 824.604 474.532L826.816 480.655L826.2 481.241C825.864 480.566 825.44 479.206 824.777 478.899C824.17 479.494 824.102 480.205 823.864 481.004L822.204 476.377Z"/>
	<path fill="#FAF0CA" transform="scale(0.21582 0.21582)" d="M721.467 611.147C721.498 610.996 721.523 610.843 721.56 610.694C722.3 607.682 730.132 588.621 732.001 587.524L733.402 589.057C734.612 593.755 737.948 598.732 739.86 603.277C744.855 615.147 748.854 627.749 754.775 639.21C755.56 640.521 756.307 641.905 757.155 643.173C753.871 649.599 751.532 656.443 749.056 663.21L746.213 659.015L744.209 660.716C745.366 662.561 746.514 664.398 747.776 666.175C745.34 671.292 743.503 676.852 740.886 681.839L731.653 681.562C728.492 676.338 725.734 671.055 723.235 665.488C719.464 656.807 715.775 646.987 710.875 638.939Q710.111 637.589 709.368 636.227C712.261 628.138 716.637 618.291 721.467 611.147Z"/>
	<path fill="#0D3B66" transform="scale(0.21582 0.21582)" d="M721.889 611.006C723.098 611.183 722.635 610.904 723.417 611.912C727.009 616.537 731.066 626.454 733.883 631.99C733.178 631.879 731.821 631.456 731.206 631.75C727.639 627.604 723.007 616.408 721.889 611.006Z"/>
	<path fill="#5C1000" transform="scale(0.21582 0.21582)" d="M731.206 631.75C731.821 631.456 733.178 631.879 733.883 631.99C737.25 638.362 739.698 645.126 742.668 651.679C743.804 654.02 745.354 656.583 746.213 659.015L744.209 660.716C742.539 657.869 741.171 654.744 739.695 651.785C736.4 645.424 734.027 638.357 731.206 631.75Z"/>
	<path fill="#FAF0CA" transform="scale(0.21582 0.21582)" d="M373.352 693.17Q373.093 692.635 372.855 692.089C372.25 690.678 372.073 689.646 372.355 688.143C372.955 684.947 374.692 681.965 375.799 678.917C377.485 674.28 378.76 669.541 380.62 664.958L381.113 664.839C382.54 670.373 384.822 675.729 387.054 680.981C389.753 687.619 392.708 694.146 395.019 700.934C398.319 709.28 402.014 717.858 406.373 725.697C407.693 726.003 408.822 725.863 410.147 725.724C409.344 727.969 407.966 730.185 407.284 732.41C403.563 739.954 401.725 748.252 397.81 755.738C397.34 761.657 389.004 781.613 386.506 788.635C371.764 776.766 370.691 767.524 362.331 751.548C360.813 746.615 357.911 741.41 355.814 736.631C360.032 722.203 365.99 708.655 370.74 694.448C373.727 699.926 376.849 705.357 379.278 711.111L380.946 709.808C379.359 704.276 376.044 698.281 373.352 693.17Z"/>
	<path fill="#0D3B66" transform="scale(0.21582 0.21582)" d="M392.341 736.234C393.926 739.222 398.901 745.401 398.668 748.518C398.068 749.471 398.214 749.655 397.079 749.992C395.573 745.733 392.298 741.263 390.315 737.096L392.341 736.234Z"/>
	<path fill="#0D3B66" transform="scale(0.21582 0.21582)" d="M381.099 760.876L381.499 759.799L382.705 759.483C384.125 762.434 385.506 765.409 387.045 768.299C388.314 770.681 389.267 773.561 389.548 776.242L389.216 776.738C385.231 773.74 383.233 765.488 381.099 760.876Z"/>
	<path fill="#5C1000" transform="scale(0.21582 0.21582)" d="M380.946 709.808Q386.83 722.941 392.341 736.234L390.315 737.096C386.055 728.998 382.527 719.68 379.278 711.111L380.946 709.808Z"/>
	<path fill="#4A2F1C" transform="scale(0.21582 0.21582)" d="M361.959 716.688C365.316 721.994 367.629 727.686 370.355 733.317C374.559 742.002 378.83 750.644 382.705 759.483L381.499 759.799L381.099 760.876C374.75 748.902 365.175 729.666 361.959 716.688Z"/>
	<path fill="#FAF0CA" transform="scale(0.21582 0.21582)" d="M873.311 288.952C873.98 290.463 874.874 291.846 875.729 293.256C883.675 307.058 889.014 322.389 896.838 336.361C897.858 338.243 898.13 339 897.521 341.156C895.463 348.441 891.375 356.84 887.514 363.323C882.161 351.305 877.492 339.004 872.199 326.957C871.018 327.708 870.92 327.608 870.581 328.943C873.349 335.722 881.713 359.688 885.95 364.032C886.815 366.339 885.419 368.371 884.433 370.543C881.659 376.655 878.406 382.524 875.606 388.621C872.218 395.999 869.298 403.844 865.16 410.828C861.448 402.605 857.386 394.549 853.587 386.367C848.919 376.314 844.787 366.548 839.216 356.92C841.951 349.292 846.532 341.961 849.879 334.508L850.945 333.389C852.93 327.501 856.329 321.682 859.184 316.175Q866.37 302.627 873.311 288.952Z"/>
	<path fill="#5C1000" transform="scale(0.21582 0.21582)" d="M864.879 368.608L866.356 372.634C865.701 373.657 865.176 374.286 864.205 375.018L862.495 370.314C863.958 369.838 864.033 369.876 864.879 368.608Z"/>
	<path fill="#5C1000" transform="scale(0.21582 0.21582)" d="M850.945 333.389C853.479 337.485 856.192 341.471 857.368 346.207C856.706 346.916 856.073 347.508 855.632 348.382C853.871 343.694 851.854 339.109 849.879 334.508L850.945 333.389Z"/>
	<path fill="#5C1000" transform="scale(0.21582 0.21582)" d="M861.811 308.553C867.45 313.538 869.557 320.148 872.199 326.957C871.018 327.708 870.92 327.608 870.581 328.943C867.614 322.173 864.523 315.429 861.811 308.553Z"/>
	<path fill="#0D3B66" transform="scale(0.21582 0.21582)" d="M866.356 372.634C867.887 376.032 873.942 386.535 873.137 389.666C871.234 389.097 869.707 386.415 868.788 384.782C867.044 381.685 865.672 378.258 864.205 375.018C865.176 374.286 865.701 373.657 866.356 372.634Z"/>
	<path fill="#0D3B66" transform="scale(0.21582 0.21582)" d="M857.368 346.207C860.215 353.536 862.551 361.099 864.879 368.608C864.033 369.876 863.958 369.838 862.495 370.314C860.147 363.024 857.997 355.671 855.632 348.382C856.073 347.508 856.706 346.916 857.368 346.207Z"/>
	<path fill="#FAF0CA" transform="scale(0.21582 0.21582)" d="M781.809 483.288C783.221 486.595 784.503 489.968 785.836 493.308L788.351 492.729C789.846 496.315 791.196 500.081 792.907 503.562C795.098 508.903 797.442 514.23 799.463 519.635C798.597 519.966 797.7 520.105 797.139 520.858C799.782 527.304 802.396 533.785 805.451 540.051C802.136 546.258 798.712 552.418 795.912 558.88C794.009 556.479 792.228 554.077 790.562 551.505C786.244 543.769 783.655 535.243 779.402 527.48L776.742 527.827C780.342 536.099 783.661 545.862 788.934 553.197C790.841 555.925 792.794 558.377 795.081 560.795C790.908 569.498 787.194 578.83 782.119 587.036C777.469 577.508 772.765 567.771 768.803 557.939L766.837 559.191C768.806 564.269 777.225 586.229 781.089 588.236C780.991 594.401 773.911 605.588 770.905 611.392C767.984 604.329 765.758 597.007 762.838 589.949C759.936 582.502 750.136 562.17 744.985 556.888C745.987 554.647 747.364 552.567 748.34 550.292C750.144 546.084 751.506 541.667 753.526 537.556C755.858 532.81 758.523 528.243 760.786 523.456C762.772 519.253 764.352 514.855 766.464 510.713C768.445 506.827 771.062 503.262 773.214 499.467C776.222 494.16 778.831 488.621 781.809 483.288Z"/>
	<path fill="#5C1000" transform="scale(0.21582 0.21582)" d="M764.081 552.967C764.537 552.238 765.206 551.596 765.776 550.95L768.803 557.939L766.837 559.191C765.826 557.169 764.982 555.042 764.081 552.967Z"/>
	<path fill="#0D3B66" transform="scale(0.21582 0.21582)" d="M764.081 552.967C761.599 547.444 758.245 539.292 757.756 533.3L758.132 533.063C761.312 535.696 764.198 546.633 765.776 550.95C765.206 551.596 764.537 552.238 764.081 552.967Z"/>
	<path fill="#5C1000" transform="scale(0.21582 0.21582)" d="M776.742 527.827C774.403 521.97 768.446 513.312 769.209 507.075C771.474 508.41 777.842 524.042 779.402 527.48L776.742 527.827Z"/>
	<path fill="#5C1000" transform="scale(0.21582 0.21582)" d="M788.351 492.729C789.846 496.315 791.196 500.081 792.907 503.562C795.098 508.903 797.442 514.23 799.463 519.635C798.597 519.966 797.7 520.105 797.139 520.858C794.591 515.425 792.477 509.752 790.229 504.188C789.156 500.549 787.274 496.842 785.836 493.308L788.351 492.729Z"/>
	<path fill="#FAF0CA" transform="scale(0.21582 0.21582)" d="M439.087 514.299C441.738 516.828 443.473 520.358 445.285 523.513C447.035 527.442 448.61 531.983 450.815 535.633L452.478 536.64C452.996 536.062 452.732 534.831 452.715 534.049L460.386 550.479L458.411 552.258C460.669 557.62 463.032 562.981 466.066 567.958C467.157 569.235 469.093 570.98 469.488 572.62C468.261 578.231 465.527 583.409 463.675 588.825C461.659 594.726 459.931 600.731 457.735 606.569C455.203 613.301 452.149 619.816 449.547 626.517C447.504 631.779 445.925 637.328 443.679 642.491C442.974 644.113 442.124 645.494 440.867 646.734L439.784 646.938L438.265 645.657L438.125 646.288C439.355 647.613 440.804 648.854 441.156 650.694C440.6 654.621 437.255 657.594 435.901 661.237L428.825 680.681C427.634 684.055 426.685 687.936 424.97 691.071C423.784 693.238 424.237 698.247 421.862 699.437C421.782 699.476 421.691 699.485 421.606 699.509C415.486 695.015 409.116 674.972 406.095 667.482C404.614 661.663 397.562 645.43 394.281 640.419C393.382 639.046 392.2 637.985 390.959 636.931C392.845 630.465 395.89 624.243 398.29 617.954C401.12 610.535 403.639 603.027 406.623 595.659C410.067 587.155 413.958 578.82 417.486 570.345C421.081 561.71 423.594 552.739 427.11 544.118C431.22 534.04 436.016 524.874 439.087 514.299Z"/>
	<path fill="#5C1000" transform="scale(0.21582 0.21582)" d="M452.715 534.049L460.386 550.479L458.411 552.258C455.779 546.762 453.079 541.295 450.815 535.633L452.478 536.64C452.996 536.062 452.732 534.831 452.715 534.049Z"/>
	<path fill="#0D3B66" transform="scale(0.21582 0.21582)" d="M426.14 623.076C423.271 617.213 421.567 610.762 418.965 604.757C416.574 599.238 413.429 594.174 410.913 588.746L411.154 588.306L412.153 588.523C418.446 593.863 424.8 612.846 427.812 621.007L426.123 619.493L425.741 619.604L425.984 620.595C426.196 621.487 426.259 622.156 426.14 623.076Z"/>
	<path fill="#0D3B66" transform="scale(0.21582 0.21582)" d="M430.429 538.292C430.691 538.399 430.965 538.488 431.208 538.634C433.071 539.752 434.319 542.367 435.306 544.267C439.501 552.348 442.658 561.036 446.49 569.303C449.693 576.211 457.099 589.456 458.758 595.823L457.365 595.419C452.426 590.795 432.71 546.377 430.429 538.292Z"/>
	<path fill="#0D3B66" transform="scale(0.21582 0.21582)" d="M448.964 625.262C446.504 623.035 444.714 620.659 443.142 617.752C440.862 613.537 439.432 609.071 437.539 604.699L426.241 578.216C424.771 574.712 422.337 570.99 421.491 567.347L422.097 567.296C423.954 568.658 425.537 570.144 426.704 572.16C429.544 577.068 431.165 582.967 433.199 588.27C436.997 598.172 444.139 615.176 449.773 623.672L448.964 625.262Z"/>
	<path fill="#5C1000" transform="scale(0.21582 0.21582)" d="M469.488 572.62C468.261 578.231 465.527 583.409 463.675 588.825C461.659 594.726 459.931 600.731 457.735 606.569C455.203 613.301 452.149 619.816 449.547 626.517C447.504 631.779 445.925 637.328 443.679 642.491C442.974 644.113 442.124 645.494 440.867 646.734L439.784 646.938L438.265 645.657L438.125 646.288C439.355 647.613 440.804 648.854 441.156 650.694C440.6 654.621 437.255 657.594 435.901 661.237L428.825 680.681C427.634 684.055 426.685 687.936 424.97 691.071C423.784 693.238 424.237 698.247 421.862 699.437C421.782 699.476 421.691 699.485 421.606 699.509C424.417 691.888 426.595 683.995 429.369 676.332C422.037 667.505 414.329 639.42 409.499 627.539C408.424 624.893 403.862 617.397 403.604 615.539L404.215 614.889L405.171 615.101C414.11 625.582 422.687 660.237 429.901 674.762L430.23 675.413C432.311 671.107 433.275 666.423 434.967 661.969C436.522 657.877 438.805 654.107 440.759 650.196C435.099 644.882 431.843 637.37 429.331 630.146C428.01 628.016 427.137 625.387 426.14 623.076C426.259 622.156 426.196 621.487 425.984 620.595L425.741 619.604L426.123 619.493L427.812 621.007C429.147 623.427 430.083 625.969 431.055 628.547C433.882 634.781 436.245 641.125 440.466 646.591C444.231 639.998 446.467 632.4 448.964 625.262L449.773 623.672Q453.753 614.6 457.214 605.318C459.979 597.68 465.275 577.979 469.488 572.62Z"/>
	<path fill="#FAF0CA" transform="scale(0.21582 0.21582)" d="M559.247 220.404C574.923 232.709 585.216 248.682 598.438 263.191L570.585 326.703C567.207 334.418 560.168 354.289 555.284 359.999C551.252 370.424 547.323 380.98 543.15 391.335C540.484 397.95 537.376 404.382 534.755 411.024Q530.414 402.011 525.899 393.084C525.476 394.484 525.36 394.575 524.222 395.508C526.884 401.633 530.028 407.367 533.519 413.051C525.778 427.598 519.785 443.813 514.066 459.269C512.293 464.063 510.917 469.008 509.016 473.752C505.366 482.86 501.692 492.08 497.876 501.115C495.361 507.07 492.209 513.033 490.566 519.281C486.275 528.11 483.212 536.945 479.618 546.023C476.523 553.843 473.143 561.708 469.823 569.436C468.702 568.749 468.345 567.645 467.713 566.512Q464.164 558.443 460.386 550.479L452.715 534.049C451.605 530.213 449.388 526.241 447.662 522.634C446.504 519.464 444.684 515.033 442.12 512.77C441.228 511.983 440.917 512.149 439.783 512.206C444.635 503.945 447.889 493.692 451.184 484.713Q455.073 492.927 458.642 501.284L460.807 499.914C459.142 495.583 457.283 488.735 454.075 485.255C453.203 484.308 452.705 484.468 451.479 484.371C452.188 481.453 460.323 462.67 462.118 459.665C463.235 455.985 465.126 452.331 466.581 448.758Q469.914 440.372 473.033 431.905Q490.551 385.657 509.921 340.155C513.373 331.467 516.213 322.331 520.137 313.87L525.431 302.022C527.569 294.518 530.623 287.394 533.404 280.121C535.94 273.49 538.249 266.602 541.291 260.195C544.763 252.882 548.779 245.807 552.409 238.57C553.52 236.354 553.985 233.008 555.974 231.545L557.064 232.245C559.308 238.46 563.479 244.676 566.722 250.461C571.672 259.289 576.396 268.147 580.487 277.416C581.759 280.298 583.072 284.666 585.51 286.646L585.944 285.984C586.271 277.31 565.271 241.4 560.092 231.28Q558.561 229.443 557.057 227.585C557.775 225.196 558.423 222.756 559.247 220.404Z"/>
	<path fill="#5C1000" transform="scale(0.21582 0.21582)" d="M458.642 501.284L460.807 499.914L464.339 508.483L461.933 509.231L458.642 501.284Z"/>
	<path fill="#4A2F1C" transform="scale(0.21582 0.21582)" d="M555.286 269.047C553.339 265.365 547.264 256.525 547.889 252.842L548.823 253.059C551.594 256.624 553.732 260.557 555.674 264.62C555.474 264.507 555.262 264.411 555.073 264.279C554.026 263.546 553.573 262.554 552.984 261.461L552.54 261.465C553.723 264.141 555.096 266.036 555.286 269.047Z"/>
	<path fill="#0D3B66" transform="scale(0.21582 0.21582)" d="M480.56 450.532C478.124 445.143 473.938 440.614 471.994 435.045C476.556 439.531 479.822 443.725 482.716 449.448L480.56 450.532Z"/>
	<path fill="#0D3B66" transform="scale(0.21582 0.21582)" d="M491.146 421.661C489.473 417.036 486.576 412.842 485.176 408.191L486.231 407.857C490.15 411.135 491.629 416.305 493.303 420.922L491.146 421.661Z"/>
	<path fill="#4A2F1C" transform="scale(0.21582 0.21582)" d="M525.994 302.263L527.288 301.493C530.787 302.931 534.222 313.331 535.806 317.037L534.817 317.574C534.084 316.455 533.969 316.203 532.78 315.634C530.141 312.354 527.962 306.134 525.994 302.263Z"/>
	<path fill="#4A2F1C" transform="scale(0.21582 0.21582)" d="M521.309 334.585C523.798 340.246 527.291 346.153 529.216 351.951C528.539 352.642 528.033 353.136 527.57 353.995C525.885 350.744 524.066 347.502 522.758 344.078C522.957 341.849 521.932 340.438 521.075 338.474C520.388 336.902 520.699 336.126 521.309 334.585Z"/>
	<path fill="#4A2F1C" transform="scale(0.21582 0.21582)" d="M503.057 399.911C501.163 395.746 495.142 385.644 494.986 381.677L495.749 381.906C500.099 386.228 501.997 391.347 504.291 396.905C503.826 397.908 503.374 398.848 503.057 399.911Z"/>
	<path fill="#0D3B66" transform="scale(0.21582 0.21582)" d="M464.339 508.483C466.676 514.107 479.034 540.626 478.694 544.245C474.542 541.398 464.581 515.575 461.933 509.231L464.339 508.483Z"/>
	<path fill="#0D3B66" transform="scale(0.21582 0.21582)" d="M527.57 353.995C528.033 353.136 528.539 352.642 529.216 351.951C532.389 358.88 542.955 378.826 544.293 384.899L544.281 384.784L543.642 385.903C538.286 380.833 530.66 361.126 527.57 353.995Z"/>
	<path fill="#FDFDFD" transform="scale(0.21582 0.21582)" d="M520.137 313.87C520.116 319.486 520.332 325.226 520.017 330.825L521.309 334.585C520.699 336.126 520.388 336.902 521.075 338.474C521.932 340.438 522.957 341.849 522.758 344.078C521.603 341.929 520.599 339.677 519.538 337.478C517.671 336.653 516.039 332.415 514.74 330.571C513.631 333.486 512.241 338.066 509.921 340.155C513.373 331.467 516.213 322.331 520.137 313.87Z"/>
	<path fill="#4A3D27" transform="scale(0.21582 0.21582)" d="M519.538 337.478C518.848 335.255 517.366 333.387 516.571 331.209C516.231 330.277 516.066 330.139 516.536 329.228C518.002 329.426 518.834 330.015 520.017 330.825L521.309 334.585C520.699 336.126 520.388 336.902 521.075 338.474C521.932 340.438 522.957 341.849 522.758 344.078C521.603 341.929 520.599 339.677 519.538 337.478Z"/>
	<path fill="#5C1000" transform="scale(0.21582 0.21582)" d="M504.672 356.704C514.264 364.916 520.756 381.6 525.899 393.084C525.476 394.484 525.36 394.575 524.222 395.508C521.141 388.717 518.261 381.619 514.745 375.051C511.456 368.905 507.118 363.264 504.672 356.704Z"/>
	<path fill="#0D3B66" transform="scale(0.21582 0.21582)" d="M503.057 399.911C503.374 398.848 503.826 397.908 504.291 396.905C506.862 402.299 522.698 432.372 521.751 435.969C520.564 435.765 520.092 435.02 519.43 434.061C516.826 430.291 515.07 425.436 513.15 421.266Q508.293 410.499 503.057 399.911Z"/>
	<path fill="#5C1000" transform="scale(0.21582 0.21582)" d="M480.56 450.532L482.716 449.448C484.82 454.2 485.961 459.373 488.169 464.031C490.999 470.005 494.886 475.368 497.39 481.539C498.601 484.406 500.096 487.28 500.221 490.438L499.881 491.136C496.832 488.562 496.59 485.739 495.05 482.324C492.988 477.132 489.834 472.346 487.388 467.32C484.761 461.922 482.742 456.124 480.56 450.532Z"/>
	<path fill="#5C1000" transform="scale(0.21582 0.21582)" d="M491.146 421.661L493.303 420.922C494.941 425.288 496.566 429.667 498.492 433.917C502.065 441.799 510.802 456.192 510.955 464.419L510.586 465.129C507.688 461.834 493.34 427.661 491.146 421.661Z"/>
	<path fill="#0D3B66" transform="scale(0.21582 0.21582)" d="M532.78 315.634C533.969 316.203 534.084 316.455 534.817 317.574L535.806 317.037C539.481 326.29 542.932 335.604 547.463 344.486C549.238 347.428 555.031 356.837 554.756 359.827C550.405 357.675 548.549 351.781 546.703 347.594C539.923 338.377 537.205 326.08 532.78 315.634Z"/>
	<path fill="#0D3B66" transform="scale(0.21582 0.21582)" d="M555.286 269.047C555.096 266.036 553.723 264.141 552.54 261.465L552.984 261.461C553.573 262.554 554.026 263.546 555.073 264.279C555.262 264.411 555.474 264.507 555.674 264.62C558.873 270.057 563.83 278.942 565.837 284.778C570.597 293.564 575.5 303.662 576.465 313.73C571.076 305.307 568.771 295.018 564.04 286.126C560.673 281.305 557.46 274.486 555.286 269.047Z"/>
	<path fill="#0D3B66" transform="scale(0.21582 0.21582)" d="M461.932 460.64C467.152 465.267 470.358 475.544 473.155 481.915C477.629 491.469 481.529 501.137 485.713 510.8C486.853 513.435 488.317 515.888 489.405 518.548L488.204 518.379C483.182 515.048 473.983 489.555 471.092 482.916C467.873 476.696 462.712 467.587 461.932 460.64Z"/>
	<path fill="#4A2F1C" transform="scale(0.21582 0.21582)" d="M537.204 274.724C538.078 274.839 538.801 275.073 539.637 275.342C540.883 276.525 541.53 277.806 542.264 279.334C547.457 290.145 551.744 301.548 556.45 312.589C559.134 318.888 562.62 325.3 564.758 331.76C565.176 333.025 565.279 334.375 565.364 335.697C561.831 333.821 540.873 282.371 537.204 274.724Z"/>
	<path fill="#F4D35E" transform="scale(0.21582 0.21582)" d="M781.13 230.863C793.71 226.019 803.907 227.779 816.39 230.679C819.081 229.795 821.619 228.825 824.49 228.935C824.688 228.943 824.887 228.94 825.086 228.95C827.643 229.075 830.357 230.143 832.799 230.891C844.169 227.378 853.046 231.223 863.985 227.98C872.71 230.572 880.912 228.273 889.8 228.665C884.192 238.773 878.283 250.134 873.127 260.48C871.085 264.578 869.412 268.845 867.262 272.894C864.21 278.642 859.785 283.55 856.701 289.248C854.593 293.143 853.036 297.358 851.063 301.327C844.756 314.017 838.396 326.688 832.372 339.528C826.128 352.837 821.411 366.825 815.114 380.069C811.808 387.022 808.323 394.028 804.596 400.763C802.015 405.428 799.049 409.878 796.815 414.729C793.21 422.557 789.494 430.431 786.217 438.4C782.222 448.117 778.627 458.06 774.165 467.577C770.597 475.187 765.984 482.219 762.276 489.74C759.288 495.8 756.965 502.167 754.146 508.302C752.058 512.848 749.506 517.195 747.482 521.755C745.476 526.277 743.971 531.008 741.893 535.505C739.291 541.138 735.655 546.247 733.057 551.879C730.077 558.338 727.878 565.117 725.05 571.633C721.027 580.905 716.267 589.857 712.147 599.089C708.319 607.665 705.115 616.559 701.119 625.048C698.489 630.633 695.25 635.926 692.491 641.447C690.073 646.285 688.176 651.377 685.694 656.18C683.247 660.914 680.399 665.453 678.097 670.26C676.035 674.566 674.716 679.118 672.829 683.477C673.95 686.359 676.551 688.597 678.563 690.91C680.708 691.072 682.912 691.136 685.04 691.44C688.217 691.399 691.487 691.208 694.648 691.486C700.774 690.822 707.088 691.243 713.248 691.17C720.83 691.079 728.425 690.72 736.007 690.52C745.401 689.693 754.995 689.999 764.416 690.069C774.749 690.259 785.326 689.46 795.609 690.454Q814.123 690.801 832.636 690.441C835.978 690.402 840.376 689.353 843.573 690.074C844.118 690.9 843.927 690.904 843.733 691.867C843.04 695.316 841.641 698.567 841.003 702.024C841.106 703.231 841.252 704.56 840.935 705.746C839.768 710.113 836.887 714.449 835.306 718.763C831.031 730.426 828.603 743.91 822.215 754.668C820.228 753.42 818.332 751.989 816.414 750.637C810.134 749.735 804.876 751.465 798.759 751.418C793.84 751.381 788.973 750.294 784.028 750.234C782.602 750.216 781.098 750.166 779.681 750.308C777.026 750.575 774.492 752.802 772.049 752.997C769.177 753.225 764.751 751.733 761.814 751.318C758.283 750.819 754.682 750.612 751.126 750.347C750.677 749.945 749.982 749.16 749.338 749.124C747.291 749.012 742.164 752.162 738.891 752.199C736.372 752.228 733.439 750.586 731.013 749.889C729.777 749.534 704.863 749.728 702.014 749.9C697.795 750.154 693.544 750.921 689.316 750.843C679.308 750.659 669.359 750.163 659.328 750.266C655.363 750.307 651.427 751.061 647.455 751.03C643.414 750.999 639.38 750.24 635.335 750.383C624.519 750.764 613.601 752.042 602.755 751.942C593.881 751.86 585.211 748.941 576.134 749.279C572.033 749.432 569.48 750.43 566.004 752.425C560.237 750.923 553.843 751.812 547.913 751.321C544.078 751.004 539.95 749.84 536.14 749.929C532.131 750.022 527.896 750.996 523.886 751.44C518.16 752.076 512.693 751.859 506.971 751.433L507.236 750.73C508.787 746.531 511.297 742.626 513.485 738.732C517.69 731.247 522.137 723.808 526.078 716.184L576.633 618.309C580.732 610.383 582.9 601.575 586.985 593.627L629.832 511.423C633.229 505.039 637.16 498.908 640.453 492.476C643.638 486.255 645.884 479.552 649.037 473.284L705.223 362.736C713.67 345.961 727.874 329.943 734.762 313.626C735.692 311.424 737.03 307.644 735.719 305.352C732.977 300.558 708.387 303.022 702.669 302.791C697.043 302.564 691.438 301.384 685.819 300.944C680.659 300.539 675.433 300.839 670.259 300.753C664.843 300.662 659.435 300.161 654.018 300.112C642.884 300.011 631.617 300.276 620.473 300.417C612.262 300.52 604.082 300.937 595.936 299.691C598.316 292.417 602.909 286.148 606.021 279.204C609.185 272.145 611.568 264.716 614.412 257.524C617.08 250.775 620.141 244.179 622.827 237.427L626.897 228.27C639.274 231.036 657.469 230.995 670.321 230.354C674.931 230.124 679.499 229.008 684.132 229.286C687.05 229.461 689.247 230.17 691.851 231.409C702.121 228.547 703.961 230.732 713.069 230.156C720.833 229.665 727.832 228.11 735.773 228.527C740.083 228.753 744.415 230.621 748.686 230.474C755.515 230.24 762.292 227.664 769.142 228C773.109 228.194 777.23 230.02 781.13 230.863Z"/>
	<path fill="#FFE27C" transform="scale(0.21582 0.21582)" d="M781.13 230.863C793.71 226.019 803.907 227.779 816.39 230.679C819.081 229.795 821.619 228.825 824.49 228.935C824.688 228.943 824.887 228.94 825.086 228.95C827.643 229.075 830.357 230.143 832.799 230.891C844.169 227.378 853.046 231.223 863.985 227.98C872.71 230.572 880.912 228.273 889.8 228.665C884.192 238.773 878.283 250.134 873.127 260.48C871.085 264.578 869.412 268.845 867.262 272.894C864.21 278.642 859.785 283.55 856.701 289.248C854.593 293.143 853.036 297.358 851.063 301.327C844.756 314.017 838.396 326.688 832.372 339.528C826.128 352.837 821.411 366.825 815.114 380.069C811.808 387.022 808.323 394.028 804.596 400.763C802.015 405.428 799.049 409.878 796.815 414.729C793.21 422.557 789.494 430.431 786.217 438.4C782.222 448.117 778.627 458.06 774.165 467.577C770.597 475.187 765.984 482.219 762.276 489.74C759.288 495.8 756.965 502.167 754.146 508.302C752.058 512.848 749.506 517.195 747.482 521.755C745.476 526.277 743.971 531.008 741.893 535.505C739.291 541.138 735.655 546.247 733.057 551.879C730.077 558.338 727.878 565.117 725.05 571.633C721.027 580.905 716.267 589.857 712.147 599.089C708.319 607.665 705.115 616.559 701.119 625.048C698.489 630.633 695.25 635.926 692.491 641.447C690.073 646.285 688.176 651.377 685.694 656.18C683.247 660.914 680.399 665.453 678.097 670.26C676.035 674.566 674.716 679.118 672.829 683.477C673.95 686.359 676.551 688.597 678.563 690.91C680.708 691.072 682.912 691.136 685.04 691.44C688.217 691.399 691.487 691.208 694.648 691.486C700.774 690.822 707.088 691.243 713.248 691.17C720.83 691.079 728.425 690.72 736.007 690.52C745.401 689.693 754.995 689.999 764.416 690.069C774.749 690.259 785.326 689.46 795.609 690.454Q814.123 690.801 832.636 690.441C835.978 690.402 840.376 689.353 843.573 690.074C844.118 690.9 843.927 690.904 843.733 691.867C843.04 695.316 841.641 698.567 841.003 702.024C837.617 702.076 835.177 702.618 832.023 703.826L827.95 700.064C824.235 701.06 820.201 703.894 816.626 701.901C813.558 700.191 810.849 697.449 807.122 697.6C806.361 698.415 806.129 699.227 805.755 700.257C800.653 701.595 795.691 703.703 790.674 700.981C788.804 701.554 787.189 702.763 785.201 702.42C784.087 701.612 782.692 700.235 781.265 700.414C777.356 700.905 776.425 704.078 771.647 702.486C765.708 702.938 759.61 702.585 753.653 702.607C746.754 702.633 739.867 703.095 732.967 703.042C724.72 702.98 716.523 702.328 708.26 702.406L671.137 702.704C665.341 702.785 659.465 703.681 653.71 702.891C651.979 701.387 649.932 699.933 648.794 697.918C648.677 694.498 647.836 689.414 648.572 686.156C649.606 681.575 656.302 670.063 659.108 665.84Q660.343 665.658 661.571 665.434C662.892 662.738 659.139 663.41 658.523 661.195C659.402 659.352 662.007 659.019 663.415 657.501C664.72 656.093 665.268 653.787 665.16 651.931C665.073 650.424 664.767 649.185 665.57 647.831C668.54 642.821 672.824 637.646 675.45 632.815C678.304 627.563 678.69 621.514 681.006 616.146C683.482 610.408 686.808 604.974 689.456 599.291C692.217 593.366 694.419 587.198 697.156 581.257C698.723 577.856 700.782 574.608 702.125 571.13L702.305 570.649L702.908 570.983L701.944 573.99C701.527 575.313 700.6 577.176 701.248 578.417C702.224 575.73 702.826 572.858 703.959 570.234C705.344 567.027 707.48 563.92 709.202 560.863C718.043 550.692 719.18 534.853 724.447 522.694C726.014 519.075 728.75 516.028 730.313 512.379C732.813 506.543 734.57 500.328 737.174 494.527C740.941 486.136 746.015 478.26 749.939 469.924C752.944 463.538 754.974 456.628 757.702 450.113C759.485 445.855 762.967 442.658 764.1 438.019C765.769 437.999 767.2 437.947 768.812 437.496L769.206 436.658C768.592 435.113 767.796 433.719 766.973 432.277Q767.488 429.344 768.261 426.467Q769.034 423.591 770.059 420.795Q771.084 417.998 772.352 415.303Q773.621 412.609 775.123 410.037C776.465 407.745 778.763 405.136 779.629 402.667C779.989 401.639 779.935 400.854 779.859 399.783C779.838 399.487 779.796 399.192 779.785 398.895C779.659 395.615 786.609 383.496 789.053 381.233L791.192 381.979C792.577 381.003 791.264 377.83 791.614 376.154C791.843 375.058 792.459 373.956 792.921 372.937C794.868 368.638 796.85 364.391 798.494 359.965C799.286 357.834 799.989 355.177 801.223 353.265C802.388 351.46 804.224 350.017 805.112 348.047C807.505 342.739 808.7 336.866 811.265 331.579C813.367 327.246 816.098 323.151 818.478 318.961C823.335 310.412 828.318 300.853 831.66 291.609C833.064 291.713 834.155 291.758 835.54 291.381C835.917 289.923 834.986 288.402 834.442 287.001C834.561 286.881 834.682 286.762 834.8 286.64C835.837 285.563 836.36 285.265 837.83 284.877C838.892 284.596 839.661 284.393 840.598 283.783C841.244 282.336 840.38 281.382 840.274 279.957C840.162 278.463 841.72 277.134 842.583 276.025C842.58 275.284 842.652 275.607 842.303 274.841C842.215 274.648 842.119 274.458 842.026 274.266C842.268 271.672 843.635 269.28 844.708 266.933C846.049 268.3 846.797 269.199 848.793 269.301L849.02 268.475C848.484 266.608 847.703 265.886 846.261 264.622C847.595 260.93 850.247 259.28 852.636 256.386C854.06 254.661 856.478 244.435 856.112 242.198C855.96 241.265 856.123 241.623 855.282 241.021C853.374 241.458 851.838 243.001 850.338 244.201Q844.559 243.836 838.795 243.289L832.954 238.336C831.978 240.237 830.822 241.919 829.574 243.65C820.884 242.342 812.414 242.444 803.644 242.571C799.225 242.635 794.062 243.223 789.744 242.346C787.829 241.957 785.925 240.483 784.306 239.425C783.01 240.748 781.305 242.3 779.546 242.93C776.441 244.042 775.792 241.299 773.379 240.35C771.541 239.626 764.839 242.884 762.333 242.987C759.138 243.119 756.064 241.34 752.898 241.038C750.597 240.818 734.068 242.019 732.685 242.549C731.547 242.985 730.732 243.329 729.494 243.395L729.077 242.935C729.254 241.584 729.399 240.255 729.471 238.893C728.898 238.621 729.201 238.647 728.566 238.854C723.742 240.425 711.048 244.282 706.477 243.83C703.336 243.52 698.524 240.153 695.579 240.716C693.181 241.174 691.071 243.752 688.555 243.452C683.974 240.574 679.151 243.208 674.217 244.17C669.032 245.181 664.911 242.791 660.788 240.017L658.242 242.671C656.431 242.689 656.691 240.923 654.816 240.713C654.175 241.551 653.984 241.933 652.987 242.351L651.694 241.125C649.12 241.175 646.181 242.851 643.812 243.846C643.226 243.344 642.649 242.837 642.014 242.397C639.217 240.457 636.683 241.266 633.596 241.856C631.223 242.309 629.342 241.769 627.029 241.227C625.665 239.925 624.231 238.687 622.827 237.427L626.897 228.27C639.274 231.036 657.469 230.995 670.321 230.354C674.931 230.124 679.499 229.008 684.132 229.286C687.05 229.461 689.247 230.17 691.851 231.409C702.121 228.547 703.961 230.732 713.069 230.156C720.833 229.665 727.832 228.11 735.773 228.527C740.083 228.753 744.415 230.621 748.686 230.474C755.515 230.24 762.292 227.664 769.142 228C773.109 228.194 777.23 230.02 781.13 230.863Z"/>
	<path fill="#F4D35E" transform="scale(0.21582 0.21582)" d="M727.264 527.573C728.394 527.482 729.736 527.215 730.793 527.702C731.458 528.009 731.611 528.892 731.888 529.522C730.25 529.534 729.099 529.777 727.649 528.977L727.264 527.573Z"/>
	<path fill="#F4D35E" transform="scale(0.21582 0.21582)" d="M662.717 695.787C663.59 695.879 664.236 696.116 665.042 696.457C665.659 697.723 665.45 698.48 665.363 699.868L663.609 699.141C662.772 697.865 662.832 697.281 662.717 695.787Z"/>
	<path fill="#F4D35E" transform="scale(0.21582 0.21582)" d="M664.699 687.718C663.731 689.891 664.546 692.069 663.552 694.225L663.034 694.188L662.521 693.354C662.454 691.443 661.792 687.322 662.993 685.957L664.205 686.142L664.699 687.718Z"/>
	<path fill="#F4D35E" transform="scale(0.21582 0.21582)" d="M651.661 688.188C653.368 688.62 653.915 689.199 655.149 690.418C656.715 691.963 658.009 693.409 658.037 695.685C656.129 695.484 655.448 695.265 654.151 693.878C652.658 692.282 651.592 690.394 651.661 688.188Z"/>
	<path fill="#F4D35E" transform="scale(0.21582 0.21582)" d="M764.416 690.069C774.749 690.259 785.326 689.46 795.609 690.454C793.792 692.265 791.862 692.572 789.354 692.535C786.954 692.5 784.522 692.209 782.131 691.987C779.838 691.384 778.711 691.161 776.581 692.423C776.337 692.568 776.122 692.771 775.856 692.872C775.582 692.976 775.278 692.975 774.988 693.027L774.18 692.307C772.807 691.983 771.837 691.787 770.47 692.266C769.361 692.654 768.526 692.811 767.354 692.915C765.707 692.186 765.436 691.515 764.416 690.069Z"/>
	<path fill="#F4D35E" transform="scale(0.21582 0.21582)" d="M668.231 686.548C669.509 685.09 670.213 683.614 672.015 682.845L672.829 683.477C673.95 686.359 676.551 688.597 678.563 690.91C680.708 691.072 682.912 691.136 685.04 691.44C681.938 691.752 677.338 691.092 674.555 692.135C673.721 693.303 673.06 693.969 671.592 694.203C670.332 694.404 668.901 693.864 668.007 693.005C666.982 692.02 666.85 691.209 666.881 689.869C667.122 689.941 667.365 690.005 667.604 690.084C668.461 690.366 669.026 690.693 669.761 691.193C671.022 691.244 671.515 690.853 672.648 690.629C672.978 690.563 673.319 690.586 673.655 690.564L673.863 690.532L674.241 689.827C672.014 688.749 670.059 688.525 667.692 689.169L668.231 686.548Z"/>
	<path fill="#F4D35E" transform="scale(0.21582 0.21582)" d="M81.9846 214.263C84.3309 215.241 86.7578 216.411 89.2791 216.813C95.144 217.747 101.318 216.863 107.242 216.871C111.816 216.877 116.686 217.442 121.222 216.895C123.914 216.571 129.614 214.203 131.935 214.815C132.58 214.985 133.08 216.594 133.371 217.205C138.352 219.338 146.303 216.5 151.49 215.871L152.75 217.04C165.637 218.697 177.888 215.169 190.729 218.635C199.964 215.546 210.876 217.839 220.633 217.34C221.554 219.094 222.524 220.875 223.221 222.732C226.195 230.652 227.919 239.093 230.144 247.235C230.915 250.057 232.401 252.936 232.954 255.769C233.153 256.789 233.052 257.856 232.939 258.878C233.735 260.64 234.715 261.372 236.215 262.544L236.955 263.128C237.041 266.948 236.3 272.533 239.224 275.325C239.324 275.42 239.433 275.505 239.537 275.596C240.39 277.715 239.882 280.113 240.706 282.263C242.243 286.268 244.97 289.843 246.479 293.882C247.911 297.714 247.892 301.943 249.113 305.833C253.09 318.51 257.635 331.065 261.439 343.792C263.801 351.696 265.436 359.74 267.691 367.644C269.462 373.85 272.512 379.636 274.262 385.822C276.009 391.993 277.736 398.281 279.121 404.539C279.868 407.914 280.243 411.807 281.359 415.047C282.328 417.862 284.453 420.394 285.137 423.282C285.882 426.431 285.679 429.822 286.713 432.906C288.292 437.614 290.896 441.997 292.359 446.747C293.468 450.349 292.981 454.385 294.232 457.912C296.985 465.675 300.964 472.142 301.867 480.506C302.377 485.225 304.186 489.336 305.529 493.833C307.421 500.172 309.152 506.514 311.358 512.758C312.967 517.315 315.178 522.108 315.752 526.928C316.484 533.083 321.573 551.026 324.291 556.961C325.215 558.978 326.814 561.361 329.136 561.876C330.223 562.117 331.455 561.86 332.39 561.265C334.217 560.104 335.515 557.75 336.487 555.888C338.63 551.783 339.933 547.099 341.678 542.804C346.032 532.086 350.602 521.526 354.678 510.684C359.208 498.633 362.974 486.374 366.941 474.136C368.066 470.662 369.544 467.308 370.653 463.834C372.05 459.46 372.873 454.918 374.336 450.564C375.893 445.934 377.882 441.451 379.489 436.838C380.935 432.689 381.961 428.382 383.558 424.287C385.076 420.394 387.061 416.644 388.355 412.671C389.411 409.425 390.08 406.052 391.047 402.778C393.069 395.931 395.597 388.976 398.084 382.283L430.591 294.092C433.93 284.905 438.158 275.96 441.258 266.695C442.47 263.071 441.81 259.147 442.937 255.535C446.754 243.296 453.175 232.066 456.388 219.542C464.457 219.451 472.697 219.579 480.741 220.237C485.903 220.66 491.14 221.614 496.317 221.625C503.982 221.641 512.036 221.422 519.685 220.983C523.962 220.737 528.277 220.111 532.56 220.171C536.891 220.231 541.302 220.959 545.597 221.506C541.996 231.432 536.761 240.624 532.847 250.408C530.245 256.912 528.998 264.189 525.791 270.418C521.658 282.522 516.517 294.376 512.001 306.352C508.45 315.77 505.507 325.495 501.748 334.817C500.786 337.203 498.991 339.24 497.681 341.446C496.309 343.756 495.26 346.305 494.191 348.766Q478.649 384.415 464.121 420.488C460.131 430.235 456.582 440.156 452.554 449.892C447.495 462.122 441.985 474.168 437.116 486.476C432.08 499.208 426.949 511.708 421.517 524.28C419.563 528.802 418.077 533.722 415.792 538.071C414.804 542.581 412.396 547.283 410.65 551.589L401.681 574.069C399.369 579.918 397.457 585.923 395.212 591.799C388.92 608.26 382.42 624.604 376.314 641.147C373.515 648.73 370.2 656.17 367.613 663.822C366.033 668.493 364.921 673.323 363.266 677.967C360.914 684.565 357.887 690.929 355.338 697.453C351.989 706.028 349.109 714.84 345.904 723.479C343.294 730.514 341.508 738.044 338.564 744.916C337.703 746.925 336.583 749.466 334.612 750.622C329.143 753.83 316.184 752.121 309.496 752.723C303.441 753.373 296.881 752.228 290.749 752.163C285.69 752.108 280.552 752.68 275.513 752.376C273.428 752.251 271.468 751.942 269.485 751.263C264.472 744.23 263.164 732.998 260.986 724.768C258.94 717.037 256.633 708.856 253.996 701.325L224.782 618.063C223.262 613.647 220.528 609.717 219.09 605.259C216.69 597.816 214.524 590.068 212.615 582.487C211.492 578.025 210.644 573.333 209.221 568.966C207.229 562.854 202.92 559.654 202.36 552.751C201.793 545.76 194.415 529.869 191.617 522.528L173.781 475.82C167.129 458.501 161.004 440.794 154.959 423.252C152.699 416.692 151.012 409.687 148.403 403.281C147 399.837 144.555 396.868 143.202 393.387C141.215 388.279 140.889 382.507 139.233 377.269C137.964 373.254 136.193 369.395 134.813 365.416C133.556 361.792 132.895 358.002 131.631 354.38C129.19 347.382 126.332 340.642 124.156 333.534C121.371 324.435 120.185 314.857 117.061 305.889C115.396 301.11 112.426 296.887 110.571 292.196C107.502 284.434 105.352 276.226 102.406 268.426C101.375 265.694 99.1836 263.507 98.1946 260.803C96.6319 256.53 96.5954 251.8 94.9987 247.415C90.9379 236.262 85.6487 225.528 81.9846 214.263Z"/>
	<path fill="#FFE27C" transform="scale(0.21582 0.21582)" d="M226.079 282.135C227.722 282.33 228.836 282.416 230.195 283.474L230.53 284.629C229.755 285.78 229.023 286.408 227.622 286.691C226.281 286.962 225.495 286.741 224.272 286.201C223.35 285.099 223.237 284.557 223.304 283.065L226.079 282.135Z"/>
	<path fill="#FFE27C" transform="scale(0.21582 0.21582)" d="M493.486 301.443C495.597 301.438 498.49 302.436 500.431 301.705C500.093 301.252 499.814 300.72 499.317 300.44L498.21 300.616L498.872 300.254L494.939 298.743C496.417 298.837 498.29 298.811 499.682 299.33C501.699 300.084 502.674 302.147 505.001 302.301C505.815 301.452 505.953 300.813 505.975 299.658C506.007 297.956 505.543 296.53 504.801 295.031L504.015 294.535C502.958 294.906 502.129 295.392 501.186 295.993C499.714 295.998 498.953 295.899 497.576 295.266L497.322 294.606L497.663 294.071C499.338 293.997 499.693 295.767 501.506 295.263C501.934 294.491 502.32 293.732 502.67 292.922C503.952 292.475 503.919 292.347 505.135 292.903C507.574 296.863 506.691 302.304 506.142 306.695C504.464 308.645 501.537 310.837 500.687 313.17C501.107 314.859 503.339 316.333 503.091 317.592L502.7 317.805C497.044 320.943 501.943 325.43 493.551 328.809C492.656 330.669 494.143 332.964 493.723 334.974C493.461 336.232 490.185 343.657 489.496 345.229C488.178 348.232 485.001 350.089 483.751 353.114C482.483 356.184 482.372 359.639 481.151 362.699C479.701 366.333 476.506 369.223 474.929 372.833C473.175 376.849 472.763 381.363 471.245 385.453C469.102 391.228 464.897 396.73 461.946 402.196C462.863 408.543 461.904 416.92 457.829 422.181C456.868 423.422 455.57 424.389 454.33 425.332C453.412 428.382 452.526 431.548 451.229 434.462C448.876 439.75 445.381 444.438 442.863 449.648C441.377 452.722 438.112 461.587 436.195 463.734C435.741 464.242 434.613 464.787 434.012 465.116C433.808 465.227 433.601 465.333 433.395 465.442C433.276 466.43 433.336 466.542 433.648 467.439C434.554 470.045 435.263 471.829 434.63 474.597C434.219 476.395 433.991 478.382 433.108 480.024C430.754 484.399 422.277 490.81 425.965 496.2C426.409 496.849 426.609 497.022 427.115 497.554C425.702 500.399 422.847 502.932 421.863 505.84C424.222 503.948 428.486 496.747 430.665 496.292L431.591 496.972C432.162 503.201 414.96 530.223 415.792 538.071C414.804 542.581 412.396 547.283 410.65 551.589L401.681 574.069C399.369 579.918 397.457 585.923 395.212 591.799C388.92 608.26 382.42 624.604 376.314 641.147C373.515 648.73 370.2 656.17 367.613 663.822C366.033 668.493 364.921 673.323 363.266 677.967C360.914 684.565 357.887 690.929 355.338 697.453C351.989 706.028 349.109 714.84 345.904 723.479C343.294 730.514 341.508 738.044 338.564 744.916C337.703 746.925 336.583 749.466 334.612 750.622C329.143 753.83 316.184 752.121 309.496 752.723C308.804 749.125 309.052 746.876 310.318 743.45L312.169 740.406C313.904 734.294 314.976 726.767 318.059 721.215C319.251 719.068 321.252 717.211 322.715 715.21C322.398 714.308 321.863 713.092 321.793 712.149C321.764 711.756 325.587 701.767 326.107 699.389C328.13 700.109 329.783 700.706 331.962 700.687L332.213 700.158C330.438 698.879 328.355 698.55 326.264 698.039C328.657 690.907 332.701 684.233 335.156 677.069C339.284 665.022 341.648 641.834 351.111 633.684C351.67 633.203 351.948 633.09 352.259 632.414L350.957 631.631C349.436 628.17 357.519 609.186 359.515 605.247C361.87 600.6 365.134 596.19 367.234 591.455C368.594 588.391 369.054 584.716 369.934 581.476C370.999 580.744 371.843 580.09 372.735 579.138C372.984 577.213 371.053 576.964 371.31 575.904C371.774 573.987 378.663 566.729 377.856 562.378C377.736 561.73 377.519 560.738 377.767 560.082C378.694 557.632 381.686 554.379 383.152 552.074C385.359 548.604 393.129 534.086 393.584 530.288L392.258 529.277L392.619 528.334Q393.33 527.833 394.029 527.315C399.004 523.648 395.307 521.786 396.332 517.24C396.612 515.998 397.315 515.021 398.415 514.409C399.373 514.54 399.917 514.614 400.881 514.424C400.601 513.219 400.352 511.908 400.476 510.662C400.808 507.349 403.749 505.603 406.158 503.771C406.951 500.435 406.95 496.892 407.932 493.654C408.251 493.45 408.866 493.068 409.144 492.842C410.154 492.021 409.971 491.336 410.108 490.098C411.394 489.345 412.284 488.641 413.804 488.546C414.314 489.24 414.459 489.748 414.588 490.582L414.724 491.521C415.706 492.12 416.295 492.221 417.447 491.971C418.61 491.719 419.538 491.226 420.181 490.209L420.014 489.97C417.72 489.78 412.619 487.606 410.283 486.599L409.854 486.411C411.008 484.336 416.929 480.229 417.082 478.587C417.302 476.219 416.219 473.47 416.459 471.109C416.478 470.929 416.932 470.252 416.974 470.211C419.946 467.237 420.119 463.81 421.85 460.112C422.798 458.087 424.129 456.159 425.339 454.278C427.464 452.828 428.922 451.459 429.89 449.036C430.487 447.244 431.782 444.15 431.558 442.331C431.46 441.535 430.278 440.888 429.671 440.395C429.543 437.083 433.36 436.934 434.863 434.794C435.729 433.56 435.364 431.131 436.094 429.673C437.192 427.481 440.147 426.632 441.218 424.452C440.436 423.462 439.775 422.523 439.142 421.424L439.408 420.498C440.35 420.304 441.395 420.196 442.161 419.573C444.775 417.449 445.395 406.516 447.557 404.167C448.166 403.505 451.293 402.772 452.449 401.979C452.704 400.333 450.892 401.055 449.999 399.64C451.471 397.114 453.514 398.645 455.108 396.734C454.337 394.636 454.277 392.199 453.898 389.989C456.053 386.466 457.353 382.227 459.679 378.942L461.078 379.532L461.713 379.148C462.587 375.387 462.149 371.658 462.889 367.931C462.933 367.71 462.986 367.491 463.032 367.271C463.542 364.823 464.764 363.819 466.581 362.231C467.125 361.721 466.909 362.03 467.201 361.184C468.332 357.907 468.748 355.93 467.175 352.659C468.797 351.081 471.009 349.511 472.125 347.549C474.149 343.99 474.405 339.538 475.942 335.771C477.189 332.714 485.547 318.132 485.636 316.684C485.678 315.986 484.872 314.925 484.928 314.235C485.059 312.607 487.17 313.089 487.701 311.311C488.361 309.101 488.126 306.858 489.044 304.637C490.326 303.959 492.212 303.183 493.097 302.006C493.234 301.824 493.356 301.631 493.486 301.443Z"/>
	<path fill="#F4D35E" transform="scale(0.21582 0.21582)" d="M433.819 442.945C434.58 443.01 435.699 443.001 436.397 443.284C437.639 443.788 437.692 444.298 438.057 445.449C436.613 445.295 435.397 445.236 434.123 444.457L433.819 442.945Z"/>
</svg>
