<?xml version="1.0" encoding="UTF-8" standalone="no"?>
<svg
   width="32"
   height="32"
   viewBox="0 0 32 32"
   fill="none"
   version="1.1"
   xmlns="http://www.w3.org/2000/svg"
>
  <rect
     style="fill:#000053;fill-opacity:1;stroke:none;stroke-width:4.07051;stroke-linecap:butt;stroke-dasharray:none;stroke-opacity:1;paint-order:markers stroke fill"
     width="29.823154"
     height="29.107399"
     x="1.1929262"
     y="1.550804"
     ry="4.6667614" />
  <path
     style="fill:#24b51c;fill-opacity:1;stroke:none;stroke-width:4;stroke-linecap:butt;stroke-dasharray:none;stroke-opacity:1"
     d="M -0.00352046,12.843657 C 1.651909,12.946629 1.040234,11.627823 3.5047517,10.806318 3.7856485,10.712688 4.1000428,10.753918 4.3809396,10.660286 4.6907188,10.557027 4.9587352,10.354811 5.2571275,10.222192 5.6702352,10.038589 6.1463716,9.9257777 6.5714094,9.7840985 7.1686837,9.585007 7.7066406,9.0075941 8.2495864,8.8266122 8.6660062,8.6878056 9.5275247,8.419317 9.9301298,8.1777539 10.408976,7.8904464 12.568635,7.0144739 13.142819,7.301566 c 0.329195,0.1645976 0.350845,0.6144412 0.438094,0.8761879 0.04354,0.1306144 0.23049,0.1689183 0.292062,0.2920627 0.07001,0.140015 0,0.4222329 0,0.5841253 0,0.2201703 0.08088,0.6739907 0,0.8761879 -0.254772,0.6369302 -0.767332,1.2178172 -1.16825,1.7523762 -0.209959,0.279945 -0.389215,0.583822 -0.584125,0.876188 -0.278747,0.418119 -0.92557,0.584653 -1.314282,0.876187 -0.671136,0.503352 -1.3491791,0.9637 -2.0444388,1.460314 -1.5247869,1.14359 -0.1873104,0.273419 -0.8761879,0.876188 -1.6328156,1.359352 -3.2032377,2.822289 -4.8190336,4.234908 -0.8724117,0.76336 -0.3350936,0.08492 -1.1682505,1.022219 -0.6561083,0.738122 -1.26890541,1.210636 -1.89993609,1.967873"
  />
  <path
     style="fill:#24b51c;fill-opacity:1;stroke:none;stroke-width:4;stroke-linecap:butt;stroke-dasharray:none;stroke-opacity:1"
     d="m 31.999597,7.9903166 c -0.626564,0.5221367 -0.441256,-0.1148087 -1.023027,0.5833169 -0.112358,0.1348288 -0.16796,0.3139912 -0.292063,0.438094 -1.148701,1.1487015 0.31998,-0.7052454 -0.876188,0.7301566 -0.112357,0.1348288 -0.16796,0.3139919 -0.292063,0.4380939 -0.07697,0.07697 -0.207068,0.07804 -0.292062,0.146032 -0.6048,0.483839 -1.169002,1.095892 -1.752376,1.606344 -1.820178,1.592656 0.521501,-0.37547 -1.022219,1.168251 -0.1721,0.172099 -0.412026,0.265994 -0.584126,0.438094 -0.365888,0.365888 -0.68547,0.775377 -1.022219,1.16825 -1.03031,1.202029 -2.22636,2.271841 -3.212689,3.504752 -0.308015,0.385019 -0.457615,0.90547 -0.730157,1.314282 -0.07637,0.114556 -0.248524,0.161448 -0.292062,0.292063 -0.03079,0.09236 0.02361,0.197615 0,0.292062 -0.06305,0.252207 -0.209665,0.482964 -0.292063,0.730157 -0.05783,0.173483 -0.334461,1.836254 -0.265071,2.044438 0.07098,1.16497 0.174318,1.853034 1.433321,2.482533 0.04354,0.02177 0.111611,-0.03442 0.146031,0 0.03442,0.03442 -0.03442,0.111611 0,0.146031 0.111897,0.111897 1.284622,0.04392 1.460313,0 0.588899,-0.147225 1.084973,-0.724292 1.606345,-1.022219 0.524669,-0.299811 0.577491,-0.228343 1.022219,-0.584125 0.21502,-0.172016 0.348007,-0.442455 0.584125,-0.584126 0.131995,-0.0792 0.317895,-0.04987 0.438094,-0.146031 0.137049,-0.109639 0.16796,-0.313991 0.292063,-0.438094 0.248205,-0.248206 0.627982,-0.33592 0.876188,-0.584125 0.172099,-0.1721 0.265994,-0.412026 0.438094,-0.584126 0.41447,-0.41447 0.856575,-0.802085 1.314282,-1.16825 0.516997,-0.413598 1.250996,0.227846 2.345725,-1.168251"
  />
</svg>
