<?xml version="1.0" encoding="utf-8" ?>
<svg xmlns="http://www.w3.org/2000/svg" xmlns:xlink="http://www.w3.org/1999/xlink" width="221" height="221">
	<path fill="#FECA05" transform="scale(0.431641 0.431641)" d="M425.498 313.378C441.084 312.481 441.622 320.577 440.502 333.197C437.811 363.525 438.209 365.815 409.694 360.89C382.073 356.12 349.06 356.162 321.66 360.323C306.682 362.597 295.824 368.64 287.534 353.246C327.552 346.351 352.62 342.983 394.748 350.254C399.493 351.073 404.52 352.44 409.342 352.463C429.08 352.556 425.548 326.572 425.498 313.378Z"/>
	<path transform="scale(0.431641 0.431641)" d="M378.497 156.75C373.221 149.568 367.505 143.038 360.249 137.772C316.403 105.954 227.997 122.705 193.286 161.216C189.593 165.313 185.385 175.327 181.566 175.727C178.473 176.052 175.748 173.629 175.683 170.523C175.563 164.757 183.837 154.932 187.62 150.985C227.442 109.439 323.641 93.6303 370.653 131.6C374.485 134.695 377.588 138.532 381.12 141.947C380.601 136.864 377.472 116.694 378.765 114.081C380.944 109.678 387.312 110.202 388.977 114.64C390.988 120 392.267 143.139 392.263 148.782C392.258 157.97 388.614 158.221 397.171 159.777C408.636 161.862 438.611 169.608 443.274 181.417C448.597 184.802 456.242 189.708 453.813 197.069C448.364 213.578 401.61 271.423 385.505 288.82C384.561 289.84 383.405 290.75 382.51 291.783C397.397 295.578 426.585 289.74 425.498 313.378C425.548 326.572 429.08 352.556 409.342 352.463C404.52 352.44 399.493 351.073 394.748 350.254C352.62 342.983 327.552 346.351 287.534 353.246C264.099 357.274 270.595 330.366 275.218 317.281C287.635 282.139 311.218 253.599 337.705 228.161C326.604 228.708 324.488 236.503 313.828 223.963C300.463 224.917 292.915 210.429 291.174 199.166C285.853 164.738 334.696 157.532 358.672 156.766C365.217 156.557 372.05 157.723 378.497 156.75ZM370.053 198.53C380.448 213.116 364.808 220.723 354.83 228.669C324.147 253.103 293.374 291.582 283.248 329.293C281.148 337.112 278.284 343.772 288.395 341.625C291.052 334.812 292.488 327.736 295.501 320.497C309.514 286.834 332.467 255.117 361.135 232.329C367.775 227.051 379.437 220.646 380.034 211.234C380.354 206.194 375.545 198.775 370.053 198.53ZM313.828 212.247C309.749 206.184 308.752 195.859 312.154 189.522C321.972 171.235 366.42 169.298 383.795 169.745C387.377 169.837 392.057 172.281 395.467 170.87C373.207 166.312 329.823 166.788 310.389 179.648C300.508 186.186 300.017 199.379 306.287 208.707C307.524 210.547 311.562 215.314 313.828 212.247Z"/>
	<path fill="#FECA05" transform="scale(0.431641 0.431641)" d="M313.828 223.963C326.114 222.145 326.533 204.766 351.578 203.816C353.288 203.751 365.201 204.208 361.925 208.495C361.075 209.607 340.901 225.942 337.705 228.161C326.604 228.708 324.488 236.503 313.828 223.963Z"/>
	<path fill="#FECA05" transform="scale(0.431641 0.431641)" d="M443.274 181.417C448.597 184.802 456.242 189.708 453.813 197.069C448.364 213.578 401.61 271.423 385.505 288.82C384.561 289.84 383.405 290.75 382.51 291.783C375.031 292.819 366.772 291.767 359.167 291.783C363.784 285.375 369.167 279.48 374.376 273.551L391.397 253.946C399.18 244.906 442.72 192.367 443.274 181.417Z"/>
	<path fill="#FECA05" transform="scale(0.431641 0.431641)" d="M313.828 212.247C309.749 206.184 308.752 195.859 312.154 189.522C321.972 171.235 366.42 169.298 383.795 169.745C387.377 169.837 392.057 172.281 395.467 170.87C407.808 173.076 419.784 177.007 430.496 183.617C417.486 203.167 403.394 222.337 388.143 240.211C373.474 257.402 357.193 273.827 344.216 292.382C334.804 305.841 357.694 303.091 363.358 303.255C369.303 303.427 412.339 304.413 413.528 309.145C414.258 312.054 415.86 340.211 410.428 341.02C407.896 341.397 391.881 337.941 387.904 337.4C361.783 333.841 333.502 334.033 307.543 337.806C301.099 338.743 294.81 340.705 288.395 341.625C291.052 334.812 292.488 327.736 295.501 320.497C309.514 286.834 332.467 255.117 361.135 232.329C367.775 227.051 379.437 220.646 380.034 211.234C380.354 206.194 375.545 198.775 370.053 198.53C363.707 192.881 356.485 192.334 348.291 192.782C333.541 193.589 322.723 201.106 313.828 212.247Z"/>
	<path transform="scale(0.431641 0.431641)" d="M171.184 373.462C173.444 377.384 186.348 395.217 174.771 396.255C168.666 396.803 165.852 387.296 163.685 382.934L138.856 333.631C119.627 296.078 104.879 257.624 88.3106 218.894C80.2823 200.127 71.6974 181.445 63.0398 162.958C60.9277 158.448 54.1943 149.798 58.7861 145.139C62.4401 141.431 90.8761 138.506 97.3674 138.348C119.53 137.81 122.477 144.669 135.623 156.75C151.711 164.952 157.373 183.023 163.84 198.688C170.708 215.322 176.652 231.585 183.14 248.201C184.589 244.163 185.7 239.975 186.968 235.874L194.02 213.597C199.069 197.992 215.15 151.325 222.09 143.663C228.772 136.286 277.399 142.919 282.761 147.901L283.718 149.735C283.093 155.062 280.085 158.569 277.338 163.027C250.9 205.924 233.087 258.048 221.674 306.784C220.401 312.221 215.105 337.571 213.106 340.909C210.251 345.676 200.078 344.289 195.487 344.612C185.532 345.313 171.517 346.684 161.983 349.35L161.61 349.456C165.616 355.528 172.805 361.139 178.838 365.019C216.508 389.249 269.088 390.313 311.711 379.247C315.644 378.226 319.581 376.511 323.549 375.783C327.507 375.056 337.68 384.146 317.775 389.443C266.043 403.207 217.418 400.257 171.184 373.462ZM237.886 151.78C232.445 160 227.205 179.402 223.883 189.002C215.676 212.72 196.722 274.905 181.199 292.795C170.997 304.553 157.7 312.879 146.39 323.385C147.781 325.809 149.021 328.296 150.261 330.799C151.664 333.814 153.065 336.67 154.975 339.409C171.137 336.049 187.432 333.084 204.022 333.326C214.694 282.498 230.188 229.917 253.284 183.434C258.2 173.54 263.977 164.313 269.3 154.675C258.943 152.901 248.408 151.663 237.886 151.78ZM93.0204 202.593C94.4592 204.892 95.4405 207.277 96.4341 209.791L103.297 225.78C104.338 228.321 105.276 231.107 106.624 233.497C108.929 238.949 110.906 245.116 114.289 249.986C117.777 244.827 124.838 240.862 129.629 236.863L143.57 225.274C146.03 223.256 148.458 221.051 151.125 219.313C149.067 213.675 146.965 208.096 144.566 202.593C143.671 199.857 142.448 197.207 141.333 194.554C139.117 189.075 136.497 183.73 134.526 178.16C133.191 175.759 131.923 173.375 130.791 170.87L108.25 189.243C103.937 192.74 96.0189 198.174 93.0204 202.593ZM230.422 151.78C225.391 158.769 222.582 167.978 219.448 175.942C210.431 198.855 201.139 224.906 194.1 248.658L187.563 270.217C186.516 273.743 183.687 289.175 176.467 283.871C174.431 282.375 173.576 279.639 172.664 277.402C161.712 287.143 149.627 298.046 138.005 306.975C141.008 312.348 143.017 318.212 146.39 323.385C157.7 312.879 170.997 304.553 181.199 292.795C196.722 274.905 215.676 212.72 223.883 189.002C227.205 179.402 232.445 160 237.886 151.78C235.422 151.766 232.878 151.616 230.422 151.78ZM151.125 219.313C148.458 221.051 146.03 223.256 143.57 225.274L129.629 236.863C124.838 240.862 117.777 244.827 114.289 249.986C114.599 252.944 115.752 255.413 116.915 258.114C119.284 263.561 121.645 269.001 123.822 274.528C124.992 277.122 125.987 279.819 127.194 282.388C137.592 275.803 152.495 261.181 163.256 252.97C162.519 250.03 161.456 247.153 160.592 244.246C159.175 238.751 156.17 233.765 154.975 228.161C153.544 225.278 152.354 222.286 151.125 219.313ZM127.194 282.388C129.513 287.806 131.722 293.525 134.526 298.707C135.773 301.44 136.978 304.151 138.005 306.975C149.627 298.046 161.712 287.143 172.664 277.402C171.95 274.735 170.854 272.151 169.985 269.529C168.059 263.954 165.818 258.283 163.256 252.97C152.495 261.181 137.592 275.803 127.194 282.388ZM114.289 152.93C106.389 157.721 90.3258 171.248 82.6312 178.16L85.9635 185.959C88.2077 191.571 91.0081 196.877 93.0204 202.593C96.0189 198.174 103.937 192.74 108.25 189.243L130.791 170.87C128.026 165.878 125.369 161.464 121.134 157.566C119.155 155.728 116.761 154.03 114.289 152.93ZM94.8977 149.735C93.6238 151.579 80.0358 162.958 76.5698 165.261C78.6762 169.522 80.4932 173.917 82.6312 178.16C90.3258 171.248 106.389 157.721 114.289 152.93C108.097 149.413 101.827 149.431 94.8977 149.735ZM70.8587 152.93L72.8825 156.75C75.5257 155.317 78.3803 153.147 80.3196 150.83C77.1934 151.601 74.0429 152.438 70.8587 152.93Z"/>
	<path fill="#FECA05" transform="scale(0.431641 0.431641)" d="M80.3196 150.83C85.1642 150.948 90.0786 150.23 94.8977 149.735C93.6238 151.579 80.0358 162.958 76.5698 165.261C75.3026 162.443 74.1058 159.588 72.8825 156.75C75.5257 155.317 78.3803 153.147 80.3196 150.83Z"/>
	<path fill="#FECA05" transform="scale(0.431641 0.431641)" d="M135.623 156.75C151.711 164.952 157.373 183.023 163.84 198.688C170.708 215.322 176.652 231.585 183.14 248.201C182.068 252.772 180.551 257.487 178.792 261.839C165.58 230.579 156.731 198.835 141.427 167.567C139.688 164.015 137.418 160.734 135.793 157.131L135.623 156.75Z"/>
	<path fill="#FECA05" transform="scale(0.431641 0.431641)" d="M114.289 152.93C116.761 154.03 119.155 155.728 121.134 157.566C109.272 165.061 97.9827 177.493 85.9635 185.959L82.6312 178.16C90.3258 171.248 106.389 157.721 114.289 152.93Z"/>
	<path fill="#FECA05" transform="scale(0.431641 0.431641)" d="M169.985 269.529C170.854 272.151 171.95 274.735 172.664 277.402C161.712 287.143 149.627 298.046 138.005 306.975C136.978 304.151 135.773 301.44 134.526 298.707C142.418 293.468 152.84 283.888 160.13 277.62C163.272 274.918 166.451 271.704 169.985 269.529Z"/>
	<path fill="#FECA05" transform="scale(0.431641 0.431641)" d="M123.822 274.528C133.142 266.025 150.345 251.453 160.592 244.246C161.456 247.153 162.519 250.03 163.256 252.97C152.495 261.181 137.592 275.803 127.194 282.388C125.987 279.819 124.992 277.122 123.822 274.528Z"/>
	<path fill="#FECA05" transform="scale(0.431641 0.431641)" d="M151.125 219.313C152.354 222.286 153.544 225.278 154.975 228.161C148.499 230.397 143.464 236.004 138.319 240.32L116.915 258.114C115.752 255.413 114.599 252.944 114.289 249.986C117.777 244.827 124.838 240.862 129.629 236.863L143.57 225.274C146.03 223.256 148.458 221.051 151.125 219.313Z"/>
	<path fill="#FECA05" transform="scale(0.431641 0.431641)" d="M93.0204 202.593C96.0189 198.174 103.937 192.74 108.25 189.243L130.791 170.87C131.923 173.375 133.191 175.759 134.526 178.16C121.914 188.326 109.134 200.128 96.4341 209.791C95.4405 207.277 94.4592 204.892 93.0204 202.593Z"/>
	<path fill="#FECA05" transform="scale(0.431641 0.431641)" d="M141.333 194.554C142.448 197.207 143.671 199.857 144.566 202.593L119.916 222.597C115.496 226.204 111.179 230.074 106.624 233.497C105.276 231.107 104.338 228.321 103.297 225.78C112.683 217.59 131.16 201.284 141.333 194.554Z"/>
	<path fill="#FECA05" transform="scale(0.431641 0.431641)" d="M237.886 151.78C248.408 151.663 258.943 152.901 269.3 154.675C263.977 164.313 258.2 173.54 253.284 183.434C230.188 229.917 214.694 282.498 204.022 333.326C187.432 333.084 171.137 336.049 154.975 339.409C153.065 336.67 151.664 333.814 150.261 330.799C149.021 328.296 147.781 325.809 146.39 323.385C157.7 312.879 170.997 304.553 181.199 292.795C196.722 274.905 215.676 212.72 223.883 189.002C227.205 179.402 232.445 160 237.886 151.78ZM216.714 230.981C210.197 233.518 210.665 241.995 218.499 241.719C221.059 240.399 222.04 239.058 222.916 236.342C221.87 232.985 220.325 231.108 216.714 230.981ZM251.599 165.261C246.566 167.769 246.464 172.913 251.599 175.732L254.538 175.732C258.436 174.023 258.83 170.838 257.264 167.195C255.313 165.559 254.145 165.149 251.599 165.261ZM178.792 306.975C171.206 310.044 172.937 317.825 179.713 317.76C186.524 315.826 184.54 305.799 178.792 306.975ZM201.216 274.528C194.231 276.147 195.662 285.683 202.545 285.209C205.259 283.814 206.366 282.58 207.541 279.732C206.252 276.94 204.599 274.321 201.216 274.528ZM164.374 318.76C157.074 322.422 159.43 329.993 166.153 329.457C172.89 325.653 170.574 317.695 164.374 318.76ZM231.895 188.46C225.496 191.328 226.405 199.77 233.377 199.497C239.8 197.304 238.854 189.074 231.895 188.46ZM209.156 252.97C202.645 255.675 203.632 264.028 210.934 263.689C213.357 262.58 214.912 260.707 215.481 258.114C214.102 255.074 212.621 253.175 209.156 252.97ZM191.101 294.503C187.694 296.907 186.233 299.29 188.275 303.209C190.064 304.485 191.421 305.297 193.574 304.584C200.686 301.602 197.889 293.871 191.101 294.503ZM223.803 209.791C219.382 211.527 218.248 215.924 222.063 219.313C223.5 219.782 224.669 219.638 226.124 219.313C229.169 218.964 229.696 217.784 230.422 215.011C229.359 211.382 227.72 209.514 223.803 209.791ZM237.886 166.419C231.271 166.885 231.279 176.358 239.41 175.732C244.547 174.525 244.368 169.382 241.133 166.419C239.999 166.291 239.019 166.257 237.886 166.419ZM150.261 330.799C151.664 333.814 153.065 336.67 154.975 339.409C159.469 334.132 156.41 330.16 150.261 330.799Z"/>
</svg>
